<svg width="291" height="291" xmlns="http://www.w3.org/2000/svg" xmlns:xlink="http://www.w3.org/1999/xlink" xml:space="preserve" overflow="hidden"><g transform="translate(-860 -353)"><path d="M929.719 395.438 1081.28 395.438 1081.28 601.562 929.719 601.562 929.719 395.438ZM911.531 619.75 1099.47 619.75 1099.47 377.25 911.531 377.25 911.531 619.75Z" fill="#FFFFFF"/><path d="M1011.56 422.719 1063.09 422.719 1063.09 434.844 1011.56 434.844Z" fill="#FFFFFF"/><path d="M1011.56 471.219 1063.09 471.219 1063.09 483.344 1011.56 483.344Z" fill="#FFFFFF"/><path d="M1011.56 568.219 1063.09 568.219 1063.09 580.344 1011.56 580.344Z" fill="#FFFFFF"/><path d="M1011.56 519.719 1063.09 519.719 1063.09 531.844 1011.56 531.844Z" fill="#FFFFFF"/><path d="M992.769 416.05 984.281 407.562 964.275 427.569 956.394 419.688 947.906 428.175 964.275 444.544Z" fill="#FFFFFF"/><path d="M992.769 464.55 984.281 456.062 964.275 476.069 956.394 468.188 947.906 476.675 964.275 493.044Z" fill="#FFFFFF"/><path d="M992.769 513.05 984.281 504.562 964.275 524.569 956.394 516.688 947.906 525.175 964.275 541.544Z" fill="#FFFFFF"/><path d="M992.769 560.944 984.281 552.456 964.275 572.463 956.394 564.581 947.906 573.069 964.275 589.438Z" fill="#FFFFFF"/></g></svg>