<svg width="291" height="291" xmlns="http://www.w3.org/2000/svg" xmlns:xlink="http://www.w3.org/1999/xlink" xml:space="preserve" overflow="hidden"><g transform="translate(-271 -346)"><path d="M357.754 387.892C357.518 388.885 357.396 389.902 357.391 390.923 357.238 397.919 362.787 403.714 369.783 403.867 369.784 403.867 369.787 403.867 369.788 403.867 372.601 403.858 375.322 402.872 377.488 401.078 380.189 404.551 384.334 406.596 388.734 406.625L395.281 406.625 395.281 421.781 428.625 421.781 428.625 400.562 411.953 400.562C408.835 397.723 404.773 396.145 400.556 396.137 398.379 396.137 396.615 394.373 396.615 392.196L396.615 392.196 396.615 390.862C396.632 383.647 390.796 377.784 383.581 377.767 383.56 377.767 383.54 377.767 383.52 377.767 381.344 377.767 379.579 376.003 379.579 373.827 380.415 365.498 374.341 358.069 366.013 357.233 357.684 356.397 350.254 362.471 349.418 370.799 349.318 371.806 349.318 372.82 349.418 373.827 349.365 379.701 352.576 385.119 357.754 387.892Z" fill="#FFFFFF"/><path d="M541.782 504.262C541.189 503.817 540.374 503.817 539.781 504.262 524.545 511.664 508.641 517.602 492.281 521.994 454.542 532.573 412.408 537.939 377.094 540.606 334.323 543.819 301.555 543.031 298.675 543.031L298.675 543.031C297.035 543.207 295.836 544.661 295.978 546.305 294.856 564.705 301.767 589.318 305.283 598.352 305.625 599.447 306.596 600.226 307.739 600.322L501.375 600.322C501.979 600.325 502.557 600.084 502.982 599.655 525.655 577.012 539.357 530.33 543.206 508.717 543.557 507.085 543.015 505.388 541.782 504.262Z" fill="#FFFFFF"/><path d="M496.768 455.125 477.125 455.125 477.125 433.906 443.781 433.906 443.781 455.125 428.625 455.125 428.625 430.875 395.281 430.875 395.281 455.125 372.607 455.125C370.07 455.142 368.017 457.195 368 459.732L368 462.764C368.081 465.254 370.116 467.235 372.607 467.25L377.094 467.25 377.094 531.513C412.59 528.815 454.876 523.389 492.281 512.567L492.281 467.25 496.768 467.25C499.305 467.233 501.359 465.18 501.375 462.643L501.375 459.763C501.392 457.218 499.343 455.142 496.798 455.125 496.788 455.125 496.777 455.125 496.768 455.125ZM401.344 491.5C396.321 491.5 392.25 487.429 392.25 482.406 392.25 477.384 396.321 473.312 401.344 473.312 406.366 473.312 410.438 477.384 410.438 482.406 410.438 487.429 406.366 491.5 401.344 491.5ZM434.688 491.5C429.665 491.5 425.594 487.429 425.594 482.406 425.594 477.384 429.665 473.312 434.688 473.312 439.71 473.312 443.781 477.384 443.781 482.406 443.781 487.429 439.71 491.5 434.688 491.5ZM468.031 491.5C463.009 491.5 458.938 487.429 458.938 482.406 458.938 477.384 463.009 473.312 468.031 473.312 473.054 473.312 477.125 477.384 477.125 482.406 477.125 487.429 473.054 491.5 468.031 491.5Z" fill="#FFFFFF"/></g></svg>