<svg width="291" height="291" xmlns="http://www.w3.org/2000/svg" xmlns:xlink="http://www.w3.org/1999/xlink" xml:space="preserve" overflow="hidden"><g transform="translate(-607 -656)"><path d="M734.312 737.844 782.812 737.844 782.812 728.75C782.812 722.081 777.356 716.625 770.688 716.625L643.375 716.625C636.706 716.625 631.25 722.081 631.25 728.75L631.25 810.594C631.25 817.263 636.706 822.719 643.375 822.719L661.562 822.719 661.562 853.031 691.875 822.719 710.062 822.719 710.062 762.094C710.062 748.756 720.975 737.844 734.312 737.844Z" fill="#747474"/><path d="M861.625 749.969 734.312 749.969C727.644 749.969 722.188 755.425 722.188 762.094L722.188 843.938C722.188 850.606 727.644 856.062 734.312 856.062L813.125 856.062 843.438 886.375 843.438 856.062 861.625 856.062C868.294 856.062 873.75 850.606 873.75 843.938L873.75 762.094C873.75 755.425 868.294 749.969 861.625 749.969Z" fill="#747474"/></g></svg>