<svg width="291" height="292" xmlns="http://www.w3.org/2000/svg" xmlns:xlink="http://www.w3.org/1999/xlink" xml:space="preserve" overflow="hidden"><g transform="translate(18 -644)"><path d="M260.688 215.219 251.594 224.312 42.4375 224.312 30.3125 212.188 30.3125 151.562 42.4375 139.438 251.594 139.438 260.688 148.531 260.688 215.219ZM12.125 121.25 12.125 242.5 278.875 242.5 278.875 121.25 12.125 121.25Z" fill="#FFFFFF" transform="matrix(1 0 0 1.00344 -18 644)"/><path d="M169.75 181.875C169.75 198.616 158.893 212.188 145.5 212.188 132.107 212.188 121.25 198.616 121.25 181.875 121.25 165.134 132.107 151.562 145.5 151.562 158.893 151.562 169.75 165.134 169.75 181.875Z" fill="#FFFFFF" transform="matrix(1 0 0 1.00344 -18 644)"/><path d="M78.8125 181.875C78.8125 186.897 74.7411 190.969 69.7188 190.969 64.6964 190.969 60.625 186.897 60.625 181.875 60.625 176.853 64.6964 172.781 69.7188 172.781 74.7411 172.781 78.8125 176.853 78.8125 181.875Z" fill="#FFFFFF" transform="matrix(1 0 0 1.00344 -18 644)"/><path d="M230.375 181.875C230.375 186.897 226.304 190.969 221.281 190.969 216.259 190.969 212.188 186.897 212.188 181.875 212.188 176.853 216.259 172.781 221.281 172.781 226.304 172.781 230.375 176.853 230.375 181.875Z" fill="#FFFFFF" transform="matrix(1 0 0 1.00344 -18 644)"/><path d="M199.759 62.7469 204.306 74.2656 222.494 70.6281 209.762 38.8 46.6812 105.487 140.044 86.9969Z" fill="#FFFFFF" transform="matrix(1 0 0 1.00344 -18 644)"/><path d="M183.997 109.125 231.891 99.7281 234.012 109.125 252.503 109.125 246.441 78.2062 90.9375 109.125Z" fill="#FFFFFF" transform="matrix(1 0 0 1.00344 -18 644)"/></g></svg>