<svg width="291" height="291" xmlns="http://www.w3.org/2000/svg" xmlns:xlink="http://www.w3.org/1999/xlink" xml:space="preserve" overflow="hidden"><g transform="translate(-1188 -346)"><path d="M1333.5 479.375C1318.34 479.375 1306.22 467.25 1306.22 452.094 1306.22 436.938 1318.34 424.812 1333.5 424.812 1348.66 424.812 1360.78 436.938 1360.78 452.094 1360.78 467.25 1348.66 479.375 1333.5 479.375ZM1333.5 388.438C1312.58 388.438 1292.88 398.744 1281.06 416.325 1269.24 433.603 1266.81 455.731 1274.39 475.434L1303.19 539.091 1328.04 591.228C1328.95 593.35 1331.07 594.562 1333.5 594.562 1335.93 594.562 1338.05 593.35 1338.96 591.228L1363.81 539.091 1392.61 475.434C1400.19 455.731 1397.76 433.603 1385.94 416.325 1374.12 398.744 1354.42 388.438 1333.5 388.438Z" fill="#FFFFFF"/></g></svg>