<?xml version="1.0" encoding="UTF-8" standalone="no"?>
<!-- Created with Inkscape (http://www.inkscape.org/) -->

<svg
   xmlns:dc="http://purl.org/dc/elements/1.1/"
   xmlns:cc="http://creativecommons.org/ns#"
   xmlns:rdf="http://www.w3.org/1999/02/22-rdf-syntax-ns#"
   xmlns:svg="http://www.w3.org/2000/svg"
   xmlns="http://www.w3.org/2000/svg"
   xmlns:sodipodi="http://sodipodi.sourceforge.net/DTD/sodipodi-0.dtd"
   xmlns:inkscape="http://www.inkscape.org/namespaces/inkscape"
   version="1.1"
   id="svg2"
   xml:space="preserve"
   width="587.61334"
   height="276.57333"
   viewBox="0 0 587.61334 276.57333"
   sodipodi:docname="chart2.svg"
   inkscape:version="0.92.4 (5da689c313, 2019-01-14)"><metadata
     id="metadata8"><rdf:RDF><cc:Work
         rdf:about=""><dc:format>image/svg+xml</dc:format><dc:type
           rdf:resource="http://purl.org/dc/dcmitype/StillImage" /><dc:title></dc:title></cc:Work></rdf:RDF></metadata><defs
     id="defs6"><clipPath
       clipPathUnits="userSpaceOnUse"
       id="clipPath18"><path
         d="M 50.4,518.16 H 547.08 V 738 H 50.4 Z"
         id="path16"
         inkscape:connector-curvature="0"
         style="clip-rule:evenodd" /></clipPath><clipPath
       clipPathUnits="userSpaceOnUse"
       id="clipPath28"><path
         d="M 50.4,518.16 H 547.08 V 738 H 50.4 Z"
         id="path26"
         inkscape:connector-curvature="0"
         style="clip-rule:evenodd" /></clipPath><clipPath
       clipPathUnits="userSpaceOnUse"
       id="clipPath44"><path
         d="m 83.04,547.92 h 295.32 v 159.6 H 83.04 Z"
         id="path42"
         inkscape:connector-curvature="0"
         style="clip-rule:evenodd" /></clipPath><clipPath
       clipPathUnits="userSpaceOnUse"
       id="clipPath54"><path
         d="m 83.04,547.92 h 295.32 v 159.6 H 83.04 Z"
         id="path52"
         inkscape:connector-curvature="0"
         style="clip-rule:evenodd" /></clipPath><clipPath
       clipPathUnits="userSpaceOnUse"
       id="clipPath64"><path
         d="m 83.04,547.92 h 295.32 v 159.6 H 83.04 Z"
         id="path62"
         inkscape:connector-curvature="0"
         style="clip-rule:evenodd" /></clipPath><clipPath
       clipPathUnits="userSpaceOnUse"
       id="clipPath74"><path
         d="m 83.04,547.92 h 295.32 v 159.6 H 83.04 Z"
         id="path72"
         inkscape:connector-curvature="0"
         style="clip-rule:evenodd" /></clipPath><clipPath
       clipPathUnits="userSpaceOnUse"
       id="clipPath84"><path
         d="m 83.04,547.92 h 295.32 v 159.6 H 83.04 Z"
         id="path82"
         inkscape:connector-curvature="0"
         style="clip-rule:evenodd" /></clipPath><clipPath
       clipPathUnits="userSpaceOnUse"
       id="clipPath94"><path
         d="m 83.04,547.92 h 295.32 v 159.6 H 83.04 Z"
         id="path92"
         inkscape:connector-curvature="0"
         style="clip-rule:evenodd" /></clipPath><clipPath
       clipPathUnits="userSpaceOnUse"
       id="clipPath104"><path
         d="M 50.4,530.64 H 491.04 V 738 H 50.4 Z"
         id="path102"
         inkscape:connector-curvature="0"
         style="clip-rule:evenodd" /></clipPath><clipPath
       clipPathUnits="userSpaceOnUse"
       id="clipPath116"><path
         d="M 50.4,530.64 H 491.04 V 738 H 50.4 Z"
         id="path114"
         inkscape:connector-curvature="0"
         style="clip-rule:evenodd" /></clipPath><clipPath
       clipPathUnits="userSpaceOnUse"
       id="clipPath128"><path
         d="M 50.4,530.64 H 491.04 V 738 H 50.4 Z"
         id="path126"
         inkscape:connector-curvature="0"
         style="clip-rule:evenodd" /></clipPath><clipPath
       clipPathUnits="userSpaceOnUse"
       id="clipPath140"><path
         d="M 50.4,530.64 H 491.04 V 738 H 50.4 Z"
         id="path138"
         inkscape:connector-curvature="0"
         style="clip-rule:evenodd" /></clipPath><clipPath
       clipPathUnits="userSpaceOnUse"
       id="clipPath152"><path
         d="M 50.4,530.64 H 491.04 V 738 H 50.4 Z"
         id="path150"
         inkscape:connector-curvature="0"
         style="clip-rule:evenodd" /></clipPath><clipPath
       clipPathUnits="userSpaceOnUse"
       id="clipPath164"><path
         d="M 50.4,530.64 H 491.04 V 738 H 50.4 Z"
         id="path162"
         inkscape:connector-curvature="0"
         style="clip-rule:evenodd" /></clipPath><clipPath
       clipPathUnits="userSpaceOnUse"
       id="clipPath176"><path
         d="M 50.4,530.64 H 491.04 V 738 H 50.4 Z"
         id="path174"
         inkscape:connector-curvature="0"
         style="clip-rule:evenodd" /></clipPath><clipPath
       clipPathUnits="userSpaceOnUse"
       id="clipPath188"><path
         d="M 50.4,530.64 H 491.04 V 738 H 50.4 Z"
         id="path186"
         inkscape:connector-curvature="0"
         style="clip-rule:evenodd" /></clipPath><clipPath
       clipPathUnits="userSpaceOnUse"
       id="clipPath200"><path
         d="M 50.4,530.64 H 491.04 V 738 H 50.4 Z"
         id="path198"
         inkscape:connector-curvature="0"
         style="clip-rule:evenodd" /></clipPath><clipPath
       clipPathUnits="userSpaceOnUse"
       id="clipPath212"><path
         d="M 50.4,530.64 H 491.04 V 738 H 50.4 Z"
         id="path210"
         inkscape:connector-curvature="0"
         style="clip-rule:evenodd" /></clipPath><clipPath
       clipPathUnits="userSpaceOnUse"
       id="clipPath224"><path
         d="M 50.4,530.64 H 491.04 V 738 H 50.4 Z"
         id="path222"
         inkscape:connector-curvature="0"
         style="clip-rule:evenodd" /></clipPath><clipPath
       clipPathUnits="userSpaceOnUse"
       id="clipPath236"><path
         d="M 50.4,530.64 H 491.04 V 738 H 50.4 Z"
         id="path234"
         inkscape:connector-curvature="0"
         style="clip-rule:evenodd" /></clipPath><clipPath
       clipPathUnits="userSpaceOnUse"
       id="clipPath248"><path
         d="M 50.4,530.64 H 491.04 V 738 H 50.4 Z"
         id="path246"
         inkscape:connector-curvature="0"
         style="clip-rule:evenodd" /></clipPath><clipPath
       clipPathUnits="userSpaceOnUse"
       id="clipPath260"><path
         d="M 50.4,530.64 H 491.04 V 738 H 50.4 Z"
         id="path258"
         inkscape:connector-curvature="0"
         style="clip-rule:evenodd" /></clipPath><clipPath
       clipPathUnits="userSpaceOnUse"
       id="clipPath272"><path
         d="M 50.4,530.64 H 491.04 V 738 H 50.4 Z"
         id="path270"
         inkscape:connector-curvature="0"
         style="clip-rule:evenodd" /></clipPath><clipPath
       clipPathUnits="userSpaceOnUse"
       id="clipPath284"><path
         d="M 50.4,530.64 H 491.04 V 738 H 50.4 Z"
         id="path282"
         inkscape:connector-curvature="0"
         style="clip-rule:evenodd" /></clipPath><clipPath
       clipPathUnits="userSpaceOnUse"
       id="clipPath296"><path
         d="M 50.4,530.64 H 491.04 V 738 H 50.4 Z"
         id="path294"
         inkscape:connector-curvature="0"
         style="clip-rule:evenodd" /></clipPath><clipPath
       clipPathUnits="userSpaceOnUse"
       id="clipPath308"><path
         d="M 50.4,530.64 H 491.04 V 738 H 50.4 Z"
         id="path306"
         inkscape:connector-curvature="0"
         style="clip-rule:evenodd" /></clipPath><clipPath
       clipPathUnits="userSpaceOnUse"
       id="clipPath320"><path
         d="M 50.4,530.64 H 491.04 V 738 H 50.4 Z"
         id="path318"
         inkscape:connector-curvature="0"
         style="clip-rule:evenodd" /></clipPath><clipPath
       clipPathUnits="userSpaceOnUse"
       id="clipPath332"><path
         d="M 50.4,530.64 H 491.04 V 738 H 50.4 Z"
         id="path330"
         inkscape:connector-curvature="0"
         style="clip-rule:evenodd" /></clipPath><clipPath
       clipPathUnits="userSpaceOnUse"
       id="clipPath344"><path
         d="M 50.4,530.64 H 491.04 V 738 H 50.4 Z"
         id="path342"
         inkscape:connector-curvature="0"
         style="clip-rule:evenodd" /></clipPath><clipPath
       clipPathUnits="userSpaceOnUse"
       id="clipPath356"><path
         d="M 50.4,530.64 H 491.04 V 738 H 50.4 Z"
         id="path354"
         inkscape:connector-curvature="0"
         style="clip-rule:evenodd" /></clipPath><clipPath
       clipPathUnits="userSpaceOnUse"
       id="clipPath368"><path
         d="M 50.4,530.64 H 491.04 V 738 H 50.4 Z"
         id="path366"
         inkscape:connector-curvature="0"
         style="clip-rule:evenodd" /></clipPath><clipPath
       clipPathUnits="userSpaceOnUse"
       id="clipPath380"><path
         d="M 50.4,530.64 H 491.04 V 738 H 50.4 Z"
         id="path378"
         inkscape:connector-curvature="0"
         style="clip-rule:evenodd" /></clipPath><clipPath
       clipPathUnits="userSpaceOnUse"
       id="clipPath392"><path
         d="M 50.4,530.64 H 491.04 V 738 H 50.4 Z"
         id="path390"
         inkscape:connector-curvature="0"
         style="clip-rule:evenodd" /></clipPath><clipPath
       clipPathUnits="userSpaceOnUse"
       id="clipPath404"><path
         d="M 50.4,530.64 H 491.04 V 738 H 50.4 Z"
         id="path402"
         inkscape:connector-curvature="0"
         style="clip-rule:evenodd" /></clipPath><clipPath
       clipPathUnits="userSpaceOnUse"
       id="clipPath416"><path
         d="M 50.4,530.64 H 491.04 V 738 H 50.4 Z"
         id="path414"
         inkscape:connector-curvature="0"
         style="clip-rule:evenodd" /></clipPath><clipPath
       clipPathUnits="userSpaceOnUse"
       id="clipPath428"><path
         d="M 50.4,530.64 H 491.04 V 738 H 50.4 Z"
         id="path426"
         inkscape:connector-curvature="0"
         style="clip-rule:evenodd" /></clipPath><clipPath
       clipPathUnits="userSpaceOnUse"
       id="clipPath440"><path
         d="M 50.4,530.64 H 491.04 V 738 H 50.4 Z"
         id="path438"
         inkscape:connector-curvature="0"
         style="clip-rule:evenodd" /></clipPath><clipPath
       clipPathUnits="userSpaceOnUse"
       id="clipPath452"><path
         d="M 50.4,530.64 H 491.04 V 738 H 50.4 Z"
         id="path450"
         inkscape:connector-curvature="0"
         style="clip-rule:evenodd" /></clipPath><clipPath
       id="clipPath1152"
       clipPathUnits="userSpaceOnUse"><rect
         y="10.398973"
         x="9.1977921"
         height="69.917221"
         width="95.440437"
         id="rect1154"
         style="fill:#c09600;stroke-width:0.946585" /></clipPath></defs><sodipodi:namedview
     pagecolor="#ffffff"
     bordercolor="#666666"
     borderopacity="1"
     objecttolerance="10"
     gridtolerance="10"
     guidetolerance="10"
     inkscape:pageopacity="0"
     inkscape:pageshadow="2"
     inkscape:window-width="1920"
     inkscape:window-height="1217"
     id="namedview4"
     showgrid="false"
     inkscape:pagecheckerboard="true"
     inkscape:zoom="1"
     inkscape:cx="340.8"
     inkscape:cy="-179.42665"
     inkscape:window-x="-8"
     inkscape:window-y="-8"
     inkscape:window-maximized="1"
     inkscape:current-layer="g10" /><g
     id="g10"
     inkscape:groupmode="layer"
     inkscape:label="chart2"
     transform="matrix(1.3333333,0,0,-1.3333333,-67.199998,983.99998)"><g
       id="g12"><g
         id="g14"
         clip-path="url(#clipPath18)"><path
           d="M 50.4,530.64 H 491.04 V 738 H 50.4 Z"
           style="fill:none;stroke:#000000;stroke-width:0.14;stroke-linecap:butt;stroke-linejoin:miter;stroke-miterlimit:10;stroke-dasharray:none;stroke-opacity:0"
           id="path20"
           inkscape:connector-curvature="0" /></g></g><g
       id="g22"><g
         id="g24"
         clip-path="url(#clipPath28)"><path
           d="M 50.4,530.64 H 491.04 V 738 H 50.4 Z"
           style="fill:#ffffff;fill-opacity:1;fill-rule:evenodd;stroke:none"
           id="path30"
           inkscape:connector-curvature="0" /></g></g><path
       d="M 83.158,575.04 H 377.62 M 83.158,601.56 H 377.62 M 83.158,628.08 H 377.62 M 83.158,654.6 H 377.62 M 83.158,681 H 377.62 M 83.158,707.51 H 377.62"
       style="fill:none;stroke:#d9d9d9;stroke-width:0.75;stroke-linecap:butt;stroke-linejoin:round;stroke-miterlimit:10;stroke-dasharray:none;stroke-opacity:1"
       id="path32"
       inkscape:connector-curvature="0" /><path
       d="M 83.158,548.6 H 377.62"
       style="fill:none;stroke:#000000;stroke-width:0.75;stroke-linecap:butt;stroke-linejoin:round;stroke-miterlimit:10;stroke-dasharray:none;stroke-opacity:1"
       id="path34"
       inkscape:connector-curvature="0" /><path
       d="m 83.158,548.6 v -3.02 m 9.242,3.02 v -3.02 m 9.12,3.02 v -3.02 m 9.24,3.02 v -3.02 m 9.24,3.02 v -3.02 m 9.12,3.02 v -3.02 m 9.24,3.02 v -3.02 m 9.24,3.02 v -3.02 m 9.12,3.02 v -3.02 m 9.24,3.02 v -3.02 m 9.24,3.02 v -3.02 m 9.24,3.02 v -3.02 m 9.12,3.02 v -3.02 m 9.24,3.02 v -3.02 m 9.24,3.02 v -3.02 m 9.12,3.02 v -3.02 m 9.24,3.02 v -3.02 m 9.24,3.02 v -3.02 m 9.12,3.02 v -3.02 m 9.24,3.02 v -3.02 m 9.24,3.02 v -3.02 m 9.12,3.02 v -3.02 m 9.24,3.02 v -3.02 m 9.24,3.02 v -3.02 m 9.12,3.02 v -3.02 m 9.24,3.02 v -3.02 m 9.24,3.02 v -3.02 m 9.12,3.02 v -3.02 m 9.24,3.02 v -3.02 m 9.24,3.02 v -3.02 m 9.12,3.02 v -3.02 m 9.24,3.02 v -3.02 m 9.22,3.02 v -3.02"
       style="fill:none;stroke:#000000;stroke-width:0.75;stroke-linecap:butt;stroke-linejoin:round;stroke-miterlimit:10;stroke-dasharray:none;stroke-opacity:1"
       id="path36"
       inkscape:connector-curvature="0" /><g
       id="g38"><g
         id="g40"
         clip-path="url(#clipPath44)"><path
           d="m 83.158,692.16 9.242,-2.04 9.12,2.64 9.24,0.76 9.24,-2.08 9.12,-3 9.24,3.12 9.24,1.92 9.12,-3.12 9.24,-2.28 9.24,2.04 9.24,-2.28 9.12,-2.4 9.24,2.16 9.24,-2.88 9.12,-0.96 9.24,-1.68 9.24,-1.32 9.12,-0.96 9.24,-10.2 9.24,0.84 9.12,-6.6 9.24,-13.08 9.24,4.2 9.12,-0.84 9.24,-14.88 9.24,-7.56 9.12,-1.32 9.24,-6.48 9.24,-11.28 9.12,-11.23 9.24,6.91 9.22,-6.36"
           style="fill:none;stroke:#000000;stroke-width:2.25;stroke-linecap:round;stroke-linejoin:round;stroke-miterlimit:10;stroke-dasharray:none;stroke-opacity:1"
           id="path46"
           inkscape:connector-curvature="0" /></g></g><g
       id="g48"><g
         id="g50"
         clip-path="url(#clipPath54)"><path
           d="m 83.158,576.91 9.242,0.41 9.12,1.56 9.24,-0.36 9.24,3.24 9.12,1.8 9.24,-4.32 9.24,1.32 9.12,2.64 9.24,0.96 9.24,2.28 9.24,3.24 9.12,2.64 9.24,-3.12 9.24,3.24 9.12,2.88 9.24,3.36 9.24,4.08 9.12,-0.48 9.24,5.04 9.24,1.56 9.12,2.04 9.24,15 9.24,-7.2 9.12,-0.36 9.24,14.16 9.24,2.88 9.12,-4.68 9.24,8.28 9.24,8.64 9.12,5.8 9.24,-5.8 9.22,3.84"
           style="fill:none;stroke:#5b9bd5;stroke-width:2.25;stroke-linecap:round;stroke-linejoin:round;stroke-miterlimit:10;stroke-dasharray:none;stroke-opacity:1"
           id="path56"
           inkscape:connector-curvature="0" /></g></g><g
       id="g58"><g
         id="g60"
         clip-path="url(#clipPath64)"><path
           d="m 83.158,559.45 9.242,-0.61 9.12,-1.92 9.24,0.84 9.24,-0.72 9.12,-2.76 9.24,0.36 9.24,0.84 9.12,2.52 9.24,-1.08 9.24,-0.6 9.24,1.08 9.12,-2.4 9.24,1.68 9.24,-0.12 h 9.12 l 9.24,-3.96 h 9.24 l 9.12,-1.08 9.24,-0.48 9.24,-0.12 9.12,-0.48 9.24,-0.48 9.24,0.36 9.12,0.12 h 9.24 l 9.24,-0.36 9.12,-0.12 9.24,0.24 9.24,-0.48 9.12,0.01 9.24,0.11 9.22,0.24"
           style="fill:none;stroke:#bd732a;stroke-width:2.25;stroke-linecap:round;stroke-linejoin:round;stroke-miterlimit:10;stroke-dasharray:none;stroke-opacity:1"
           id="path66"
           inkscape:connector-curvature="0" /></g></g><g
       id="g68"><g
         id="g70"
         clip-path="url(#clipPath74)"><path
           d="m 83.158,548.88 h 9.242 9.12 9.24 l 9.24,0.12 9.12,-0.12 h 9.24 9.24 l 9.12,-0.01 9.24,0.13 h 9.24 l 9.24,0.12 9.12,0.24 9.24,0.12 9.24,0.12 9.12,0.24 9.24,0.6 9.24,0.48 9.12,1.44 9.24,1.44 9.24,1.2 9.12,1.8 9.24,1.68 9.24,2.04 9.12,1.44 9.24,1.2 9.24,3.12 9.12,3.24 9.24,1.2 9.24,2.4 9.12,4.68 9.24,3.72 9.22,4.58"
           style="fill:none;stroke:#ffc702;stroke-width:2.25;stroke-linecap:round;stroke-linejoin:round;stroke-miterlimit:10;stroke-dasharray:none;stroke-opacity:1"
           id="path76"
           inkscape:connector-curvature="0" /></g></g><g
       id="g78"><g
         id="g80"
         clip-path="url(#clipPath84)"><path
           d="m 83.158,601.32 9.242,2.52 9.12,0.6 9.24,-2.76 9.24,1.8 9.12,0.96 9.24,-1.44 9.24,-4.44 9.12,1.68 9.24,3 9.24,0.24 9.24,2 9.12,-1.04 9.24,-1.44 9.24,0.48 9.12,-1.8 9.24,0.24 h 9.24 l 9.12,0.36 9.24,1.8 9.24,-1.68 9.12,-0.84 9.24,-0.6 9.24,1.2 9.12,0.12 9.24,0.12 9.24,0.6 9.12,0.6 9.24,-1.8 9.24,0.84 9.12,0.24 9.24,-2.04 9.22,-2.28"
           style="fill:none;stroke:#a33340;stroke-width:2.25;stroke-linecap:round;stroke-linejoin:round;stroke-miterlimit:10;stroke-dasharray:none;stroke-opacity:1"
           id="path86"
           inkscape:connector-curvature="0" /></g></g><g
       id="g88"><g
         id="g90"
         clip-path="url(#clipPath94)"><path
           d="m 83.158,577.8 9.242,-0.36 9.12,-3 9.24,1.68 9.24,-2.4 9.12,3.24 9.24,2.16 9.24,0.39 9.12,-3.63 9.24,-0.84 9.24,-3.96 9.24,-4.73 9.12,2.93 9.24,0.72 9.24,-0.96 9.12,-0.12 9.24,1.32 9.24,-3.24 9.12,0.72 9.24,2.28 9.24,-1.68 9.12,3.96 9.24,-2.4 9.24,-0.6 9.12,-0.48 9.24,-0.6 9.24,1.2 9.12,2.4 9.24,-1.32 9.24,-0.24 9.12,0.48 9.24,-2.88 h 9.22"
           style="fill:none;stroke:#70ad47;stroke-width:2.25;stroke-linecap:round;stroke-linejoin:round;stroke-miterlimit:10;stroke-dasharray:none;stroke-opacity:1"
           id="path96"
           inkscape:connector-curvature="0" /></g></g><g
       id="g98"><g
         id="g100"
         clip-path="url(#clipPath104)"><text
           transform="matrix(1,0,0,-1,60.12,545.45)"
           style="font-variant:normal;font-weight:normal;font-size:9.96000004px;font-family:Arial;-inkscape-font-specification:ArialMT;writing-mode:lr-tb;fill:#000000;fill-opacity:1;fill-rule:nonzero;stroke:none"
           id="text108"><tspan
             x="0 5.5199599"
             y="0"
             sodipodi:role="line"
             id="tspan106">0%</tspan></text>
</g></g><g
       id="g110"><g
         id="g112"
         clip-path="url(#clipPath116)"><text
           transform="matrix(1,0,0,-1,54.552,571.94)"
           style="font-variant:normal;font-weight:normal;font-size:9.96000004px;font-family:Arial;-inkscape-font-specification:ArialMT;writing-mode:lr-tb;fill:#000000;fill-opacity:1;fill-rule:nonzero;stroke:none"
           id="text120"><tspan
             x="0 5.5377598 11.14524"
             y="0"
             sodipodi:role="line"
             id="tspan118">10%</tspan></text>
</g></g><g
       id="g122"><g
         id="g124"
         clip-path="url(#clipPath128)"><text
           transform="matrix(1,0,0,-1,54.552,598.42)"
           style="font-variant:normal;font-weight:normal;font-size:9.96000004px;font-family:Arial;-inkscape-font-specification:ArialMT;writing-mode:lr-tb;fill:#000000;fill-opacity:1;fill-rule:nonzero;stroke:none"
           id="text132"><tspan
             x="0 5.5377598 11.14524"
             y="0"
             sodipodi:role="line"
             id="tspan130">20%</tspan></text>
</g></g><g
       id="g134"><g
         id="g136"
         clip-path="url(#clipPath140)"><text
           transform="matrix(1,0,0,-1,54.552,624.91)"
           style="font-variant:normal;font-weight:normal;font-size:9.96000004px;font-family:Arial;-inkscape-font-specification:ArialMT;writing-mode:lr-tb;fill:#000000;fill-opacity:1;fill-rule:nonzero;stroke:none"
           id="text144"><tspan
             x="0 5.5377598 11.14524"
             y="0"
             sodipodi:role="line"
             id="tspan142">30%</tspan></text>
</g></g><g
       id="g146"><g
         id="g148"
         clip-path="url(#clipPath152)"><text
           transform="matrix(1,0,0,-1,54.552,651.41)"
           style="font-variant:normal;font-weight:normal;font-size:9.96000004px;font-family:Arial;-inkscape-font-specification:ArialMT;writing-mode:lr-tb;fill:#000000;fill-opacity:1;fill-rule:nonzero;stroke:none"
           id="text156"><tspan
             x="0 5.5377598 11.14524"
             y="0"
             sodipodi:role="line"
             id="tspan154">40%</tspan></text>
</g></g><g
       id="g158"><g
         id="g160"
         clip-path="url(#clipPath164)"><text
           transform="matrix(1,0,0,-1,54.552,677.88)"
           style="font-variant:normal;font-weight:normal;font-size:9.96000004px;font-family:Arial;-inkscape-font-specification:ArialMT;writing-mode:lr-tb;fill:#000000;fill-opacity:1;fill-rule:nonzero;stroke:none"
           id="text168"><tspan
             x="0 5.5377598 11.14524"
             y="0"
             sodipodi:role="line"
             id="tspan166">50%</tspan></text>
</g></g><g
       id="g170"><g
         id="g172"
         clip-path="url(#clipPath176)"><text
           transform="matrix(1,0,0,-1,54.552,704.38)"
           style="font-variant:normal;font-weight:normal;font-size:9.96000004px;font-family:Arial;-inkscape-font-specification:ArialMT;writing-mode:lr-tb;fill:#000000;fill-opacity:1;fill-rule:nonzero;stroke:none"
           id="text180"><tspan
             x="0 5.5377598 11.14524"
             y="0"
             sodipodi:role="line"
             id="tspan178">60%</tspan></text>
</g></g><g
       id="g182"><g
         id="g184"
         clip-path="url(#clipPath188)"><text
           transform="matrix(1,0,0,-1,72.048,533.52)"
           style="font-variant:normal;font-weight:normal;font-size:9.96000004px;font-family:Arial;-inkscape-font-specification:ArialMT;writing-mode:lr-tb;fill:#000000;fill-opacity:1;fill-rule:nonzero;stroke:none"
           id="text192"><tspan
             x="0 5.5377598 11.14524 16.683001"
             y="0"
             sodipodi:role="line"
             id="tspan190">1990</tspan></text>
</g></g><g
       id="g194"><g
         id="g196"
         clip-path="url(#clipPath200)"><text
           transform="matrix(1,0,0,-1,118.08,533.52)"
           style="font-variant:normal;font-weight:normal;font-size:9.96000004px;font-family:Arial;-inkscape-font-specification:ArialMT;writing-mode:lr-tb;fill:#000000;fill-opacity:1;fill-rule:nonzero;stroke:none"
           id="text204"><tspan
             x="0 5.5377598 11.14524 16.683001"
             y="0"
             sodipodi:role="line"
             id="tspan202">1995</tspan></text>
</g></g><g
       id="g206"><g
         id="g208"
         clip-path="url(#clipPath212)"><text
           transform="matrix(1,0,0,-1,164.09,533.52)"
           style="font-variant:normal;font-weight:normal;font-size:9.96000004px;font-family:Arial;-inkscape-font-specification:ArialMT;writing-mode:lr-tb;fill:#000000;fill-opacity:1;fill-rule:nonzero;stroke:none"
           id="text216"><tspan
             x="0 5.5377598 11.14524 16.683001"
             y="0"
             sodipodi:role="line"
             id="tspan214">2000</tspan></text>
</g></g><g
       id="g218"><g
         id="g220"
         clip-path="url(#clipPath224)"><text
           transform="matrix(1,0,0,-1,210.1,533.52)"
           style="font-variant:normal;font-weight:normal;font-size:9.96000004px;font-family:Arial;-inkscape-font-specification:ArialMT;writing-mode:lr-tb;fill:#000000;fill-opacity:1;fill-rule:nonzero;stroke:none"
           id="text228"><tspan
             x="0 5.5377598 11.19504 16.7328"
             y="0"
             sodipodi:role="line"
             id="tspan226">2005</tspan></text>
</g></g><g
       id="g230"><g
         id="g232"
         clip-path="url(#clipPath236)"><text
           transform="matrix(1,0,0,-1,256.13,533.52)"
           style="font-variant:normal;font-weight:normal;font-size:9.96000004px;font-family:Arial;-inkscape-font-specification:ArialMT;writing-mode:lr-tb;fill:#000000;fill-opacity:1;fill-rule:nonzero;stroke:none"
           id="text240"><tspan
             x="0 5.5377598 11.14524 16.683001"
             y="0"
             sodipodi:role="line"
             id="tspan238">2010</tspan></text>
</g></g><g
       id="g242"><g
         id="g244"
         clip-path="url(#clipPath248)"><text
           transform="matrix(1,0,0,-1,302.14,533.52)"
           style="font-variant:normal;font-weight:normal;font-size:9.96000004px;font-family:Arial;-inkscape-font-specification:ArialMT;writing-mode:lr-tb;fill:#000000;fill-opacity:1;fill-rule:nonzero;stroke:none"
           id="text252"><tspan
             x="0 5.5377598 11.14524 16.683001"
             y="0"
             sodipodi:role="line"
             id="tspan250">2015</tspan></text>
</g></g><g
       id="g254"><g
         id="g256"
         clip-path="url(#clipPath260)"><text
           transform="matrix(1,0,0,-1,348.17,533.52)"
           style="font-variant:normal;font-weight:normal;font-size:9.96000004px;font-family:Arial;-inkscape-font-specification:ArialMT;writing-mode:lr-tb;fill:#000000;fill-opacity:1;fill-rule:nonzero;stroke:none"
           id="text264"><tspan
             x="0 5.5377598 11.14524 16.683001"
             y="0"
             sodipodi:role="line"
             id="tspan262">2020</tspan></text>
</g></g><g
       id="g266"><g
         id="g268"
         clip-path="url(#clipPath272)"><text
           transform="matrix(1,0,0,-1,385.73,655.3)"
           style="font-variant:normal;font-weight:bold;font-size:9.96000004px;font-family:Arial;-inkscape-font-specification:Arial-BoldMT;writing-mode:lr-tb;fill:#0096d7;fill-opacity:1;fill-rule:nonzero;stroke:none"
           id="text276"><tspan
             x="0 6.1054802 11.64324 14.95992 21.09528 24.93984 30.4776 33.246479 36.085079 42.190559 47.728321"
             y="0"
             sodipodi:role="line"
             id="tspan274">natural gas</tspan></text>
</g></g><g
       id="g278"><g
         id="g280"
         clip-path="url(#clipPath284)"><text
           transform="matrix(1,0,0,-1,439.01,655.3)"
           style="font-variant:normal;font-weight:bold;font-size:9.96000004px;font-family:Arial;-inkscape-font-specification:Arial-BoldMT;writing-mode:lr-tb;fill:#0096d7;fill-opacity:1;fill-rule:nonzero;stroke:none"
           id="text288"><tspan
             x="0"
             y="0"
             id="tspan286">-</tspan></text>
</g></g><g
       id="g290"><g
         id="g292"
         clip-path="url(#clipPath296)"><text
           transform="matrix(1,0,0,-1,442.37,655.3)"
           style="font-variant:normal;font-weight:bold;font-size:9.96000004px;font-family:Arial;-inkscape-font-specification:Arial-BoldMT;writing-mode:lr-tb;fill:#0096d7;fill-opacity:1;fill-rule:nonzero;stroke:none"
           id="text300"><tspan
             x="0 3.34656 6.1154399 9.9500399 15.4878 21.57336"
             y="0"
             sodipodi:role="line"
             id="tspan298">fired </tspan></text>
</g></g><g
       id="g302"><g
         id="g304"
         clip-path="url(#clipPath308)"><text
           transform="matrix(1,0,0,-1,385.73,643.78)"
           style="font-variant:normal;font-weight:bold;font-size:9.96000004px;font-family:Arial;-inkscape-font-specification:Arial-BoldMT;writing-mode:lr-tb;fill:#0096d7;fill-opacity:1;fill-rule:nonzero;stroke:none"
           id="text312"><tspan
             x="0 6.1054802 11.64324 17.7288 23.26656 27.10116 32.63892 35.955601 38.72448 44.84988"
             y="0"
             sodipodi:role="line"
             id="tspan310">generation</tspan></text>
</g></g><g
       id="g314"><g
         id="g316"
         clip-path="url(#clipPath320)"><text
           transform="matrix(1,0,0,-1,385.73,609.22)"
           style="font-variant:normal;font-weight:bold;font-size:9.96000004px;font-family:Arial;-inkscape-font-specification:Arial-BoldMT;writing-mode:lr-tb;fill:#000000;fill-opacity:1;fill-rule:nonzero;stroke:none"
           id="text324"><tspan
             x="0 5.5377598 11.62332 17.161079"
             y="0"
             sodipodi:role="line"
             id="tspan322">coal</tspan></text>
</g></g><g
       id="g326"><g
         id="g328"
         clip-path="url(#clipPath332)"><text
           transform="matrix(1,0,0,-1,405.65,609.22)"
           style="font-variant:normal;font-weight:bold;font-size:9.96000004px;font-family:Arial;-inkscape-font-specification:Arial-BoldMT;writing-mode:lr-tb;fill:#000000;fill-opacity:1;fill-rule:nonzero;stroke:none"
           id="text336"><tspan
             x="0"
             y="0"
             id="tspan334">-</tspan></text>
</g></g><g
       id="g338"><g
         id="g340"
         clip-path="url(#clipPath344)"><text
           transform="matrix(1,0,0,-1,409.01,609.22)"
           style="font-variant:normal;font-weight:bold;font-size:9.96000004px;font-family:Arial;-inkscape-font-specification:Arial-BoldMT;writing-mode:lr-tb;fill:#000000;fill-opacity:1;fill-rule:nonzero;stroke:none"
           id="text348"><tspan
             x="0 3.34656 6.1154399 9.9500399 15.4878 21.57336 24.46176 30.56724 36.105 42.190559 47.728321 51.56292 57.100681 60.417358 63.186241 69.311638"
             y="0"
             sodipodi:role="line"
             id="tspan346">fired generation</tspan></text>
</g></g><g
       id="g350"><g
         id="g352"
         clip-path="url(#clipPath356)"><text
           transform="matrix(1,0,0,-1,385.73,597.82)"
           style="font-variant:normal;font-weight:bold;font-size:9.96000004px;font-family:Arial;-inkscape-font-specification:Arial-BoldMT;writing-mode:lr-tb;fill:#a33340;fill-opacity:1;fill-rule:nonzero;stroke:none"
           id="text360"><tspan
             x="0 6.1054802 12.21096 17.74872 20.517599 26.01552 31.55328"
             y="0"
             sodipodi:role="line"
             id="tspan358">nuclear</tspan></text>
</g></g><g
       id="g362"><g
         id="g364"
         clip-path="url(#clipPath368)"><text
           transform="matrix(1,0,0,-1,385.73,586.3)"
           style="font-variant:normal;font-weight:bold;font-size:9.96000004px;font-family:Arial;-inkscape-font-specification:Arial-BoldMT;writing-mode:lr-tb;fill:#ffc702;fill-opacity:1;fill-rule:nonzero;stroke:none"
           id="text372"><tspan
             x="0 5.5377598 11.62332 14.3922 19.92996 23.764561 26.633039 32.170799 38.256359 44.38176 47.25024 55.158482 57.927361 64.012917"
             y="0"
             sodipodi:role="line"
             id="tspan370">solar and wind</tspan></text>
</g></g><g
       id="g374"><g
         id="g376"
         clip-path="url(#clipPath380)"><text
           transform="matrix(1,0,0,-1,385.73,563.26)"
           style="font-variant:normal;font-weight:bold;font-size:9.96000004px;font-family:Arial;-inkscape-font-specification:Arial-BoldMT;writing-mode:lr-tb;fill:#5d9732;fill-opacity:1;fill-rule:nonzero;stroke:none"
           id="text384"><tspan
             x="0 6.1054802 9.4520397 15.55752 21.09528 24.91992 27.688801 31.523399 37.061161 43.146721 48.684479 56.59272 62.130482 68.216042 70.984917 76.522682"
             y="0"
             sodipodi:role="line"
             id="tspan382">other renewables</tspan></text>
</g></g><g
       id="g386"><g
         id="g388"
         clip-path="url(#clipPath392)"><text
           transform="matrix(1,0,0,-1,385.73,540.22)"
           style="font-variant:normal;font-weight:bold;font-size:9.96000004px;font-family:Arial;-inkscape-font-specification:Arial-BoldMT;writing-mode:lr-tb;fill:#bd732a;fill-opacity:1;fill-rule:nonzero;stroke:none"
           id="text396"><tspan
             x="0 6.1054802 11.64324 14.95992 18.83436 24.91992 27.688801 33.226559 39.332039"
             y="0"
             sodipodi:role="line"
             id="tspan394">petroleum</tspan></text>
</g></g><g
       id="g398"><g
         id="g400"
         clip-path="url(#clipPath404)"><text
           transform="matrix(1,0,0,-1,52.56,726.48)"
           style="font-variant:normal;font-weight:bold;font-size:9.96000004px;font-family:Arial;-inkscape-font-specification:Arial-BoldMT;writing-mode:lr-tb;fill:#000000;fill-opacity:1;fill-rule:nonzero;stroke:none"
           id="text408"><tspan
             x="0 6.8425202 12.948 19.05348 25.15896 30.69672 33.465599 36.672722 43.863838 46.632721 53.236198 56.005081 58.863602 64.40136 67.170242 72.668159 78.205917 81.522598 85.397041 88.165916 93.663841 96.432716 99.769318 105.16764 108.27516 114.38064 119.9184 123.23508 126.00396 132.12936 137.66711 143.75269 149.29044 153.12505 158.6628 161.97948 164.74837 170.87376 176.97923 179.84772 185.9532 191.35152 194.33952 199.87727 205.96284 211.5006 215.33521 221.44067 226.839 229.827 235.36476 241.45032 247.57571 251.42027 256.95804 262.45596 265.44397 268.79053 274.896 278.74057 281.50943 287.04721 289.77625 292.5451 295.40363 300.94141 306.43933 311.97708 315.29376 321.42911 325.27368 330.81143"
             y="0"
             sodipodi:role="line"
             id="tspan406">Annual U.S. electricity net generation by energy source for all sectors </tspan></text>
</g></g><g
       id="g410"><g
         id="g412"
         clip-path="url(#clipPath416)"><text
           transform="matrix(1,0,0,-1,386.59,726.48)"
           style="font-variant:normal;font-weight:bold;font-size:9.96000004px;font-family:Arial;-inkscape-font-specification:Arial-BoldMT;writing-mode:lr-tb;fill:#000000;fill-opacity:1;fill-rule:nonzero;stroke:none"
           id="text420"><tspan
             x="0 3.34656 8.8843203 14.38224 19.92"
             y="0"
             sodipodi:role="line"
             id="tspan418">(1990</tspan></text>
</g></g><g
       id="g422"><g
         id="g424"
         clip-path="url(#clipPath428)"><text
           transform="matrix(1,0,0,-1,412.03,726.48)"
           style="font-variant:normal;font-weight:bold;font-size:9.96000004px;font-family:Arial;-inkscape-font-specification:Arial-BoldMT;writing-mode:lr-tb;fill:#000000;fill-opacity:1;fill-rule:nonzero;stroke:none"
           id="text432"><tspan
             x="0"
             y="0"
             id="tspan430">–</tspan></text>
</g></g><g
       id="g434"><g
         id="g436"
         clip-path="url(#clipPath440)"><text
           transform="matrix(1,0,0,-1,417.55,726.48)"
           style="font-variant:normal;font-weight:bold;font-size:9.96000004px;font-family:Arial;-inkscape-font-specification:Arial-BoldMT;writing-mode:lr-tb;fill:#000000;fill-opacity:1;fill-rule:nonzero;stroke:none"
           id="text444"><tspan
             x="0 5.5199599 11.03992 16.559879 22.07984"
             y="0"
             sodipodi:role="line"
             id="tspan442">2022)</tspan></text>
</g></g><g
       id="g446"><g
         id="g448"
         clip-path="url(#clipPath452)"><text
           transform="matrix(1,0,0,-1,52.56,714.96)"
           style="font-variant:normal;font-weight:normal;font-size:9.98400021px;font-family:Arial;-inkscape-font-specification:ArialMT;writing-mode:lr-tb;fill:#000000;fill-opacity:1;fill-rule:nonzero;stroke:none"
           id="text456"><tspan
             x="0 5.521152 11.042304 14.396928 19.428864 24.950016 30.471169 33.246719 38.747906 44.269054 49.790207 52.775425 58.296577 61.161983 63.937534 69.438721 71.595261 77.116417 82.148354 84.923904 88.248573 90.425087 95.457024 97.613571 100.38912 105.05165 108.28646 116.79283 118.94938"
             y="0"
             sodipodi:role="line"
             id="tspan454">percentage of electricity mix</tspan></text>
</g></g><g
       transform="matrix(0.25089208,0,0,-0.25089208,456.84562,733.21215)"
       clip-path="url(#clipPath1152)"
       id="g859">
	<path
   id="path847"
   d="m 87.8,59.8 c 0,-11.4 -6,-13.6 -11.1,-14 -8.5,-0.6 -14.8,4.6 -14.8,4.6 l 4.7,4.8 c 5,-4 13.3,-3.2 14,2 0,0 -7.3,1.7 -9,2 -5.1,1.1 -8.5,1.5 -11.1,5.3 -2.3,3.7 -1.7,9.2 1.7,12.3 4.7,4.2 14.5,4.2 19.4,-1.5 0,0 0.6,3.2 1,4.2 H 90 C 86.9,72.3 87.7,64.6 87.8,59.8 Z m -7.2,5.1 c -0.4,3.3 -2.7,7.4 -8.8,8.2 -3.8,0.5 -7.4,-2 -5.5,-5.4 0.6,-1.1 1.9,-1.9 3.7,-2.2 1.1,-0.2 2.3,-0.3 3.6,-0.5 2.8,-0.4 5.4,-1 7,-1.6 0,0 0,1.1 0,1.5 z"
   class="st0"
   inkscape:connector-curvature="0"
   style="fill:#333333" />
	<path
   id="path849"
   d="M 40,62.9 C 40.1,53.1 34.7,46.1 24.9,46.2 15.3,46.1 9.5,53.5 9.6,63 c 0,5.1 1.4,9.1 4.3,12.2 3.6,4.1 10.4,5.4 16,4 4,-1 7.1,-3.7 9.3,-7.1 L 33,68.7 c -4.6,7.7 -15.3,5.1 -15.7,-4 H 40 Z M 17.8,58.7 c 1.7,-7.6 13.1,-8 14.7,0 z"
   class="st0"
   inkscape:connector-curvature="0"
   style="fill:#333333" />
	<path
   id="path851"
   d="M 83.1,24.8 C 70.3,17.6 49.7,18.5 11.5,39.8 9.4,41 9.4,40.3 9.9,39.7 12.6,36.5 46.6,8.6 76.8,11.2 c 8.8,0.8 24.5,5.9 27.1,22.9 2.6,17 -5.1,27 -7.4,27.5 C 99.6,49.8 97.6,33 83.1,24.8 Z"
   class="st1"
   inkscape:connector-curvature="0"
   style="fill:#0096d7" />
	<g
   id="g857">
		<path
   id="path853"
   d="m 46,49.4 v 30 h 7.3 v -30 z"
   class="st0"
   inkscape:connector-curvature="0"
   style="fill:#333333" />
		<circle
   id="circle855"
   r="4.6999998"
   cy="40.099998"
   cx="49.700001"
   class="st0"
   style="fill:#333333" />
	</g>
</g></g><style
     id="style845"
     type="text/css">
	.st0{fill:#333333;}
	.st1{fill:#0096D7;}
</style></svg>