<svg height="512pt" viewBox="0 -1 512.00363 512" width="512pt" xmlns="http://www.w3.org/2000/svg"><path d="m201.546875 373.308594c3.097656 1.097656 6.125 2.484375 9.039063 4.171875 17.402343 10.066406 18.914062 24.5 29.457031 30.835937 7.152343 4.296875 16.269531 4.460938 23.605469.40625 11.367187-6.28125 12.804687-20.6875 28.785156-30.523437 16.769531-10.324219 37.738281-10.613281 54.84375-.71875 17.402344 10.066406 18.914062 24.5 29.457031 30.835937 7.699219 4.628906 17.558594 4.433594 25.101563-.511718 11.703124-7.675782 8.179687-19.742188 29.90625-31.289063 16.351562-8.6875 35.871093-8.308594 51.90625.964844 11.40625 6.597656 38.792968 35.074219 24.148437 48.46875-6.085937 5.566406-15.527344 5.148437-21.09375-.9375-6.644531-7.265625-9.488281-16.675781-18.054687-21.632813-6.960938-4.027344-15.695313-4.175781-22.84375-.375-10.945313 5.816406-12.292969 19.867188-27.566407 29.878906-17.1875 11.273438-39.175781 11.726563-56.859375 1.097657-16.417968-9.867188-18.160156-24.269531-29.105468-30.601563-7.429688-4.296875-16.792969-4.15625-24.140626.367188-11.222656 6.910156-10.683593 20.515625-30.070312 31.230468-16.753906 9.253907-36.972656 8.863282-53.371094-.996093-9.6875-5.820313-14.941406-12.386719-20.449218-21.964844-6.710938-11.675781-22.039063-15.320313-33.328126-7.941406-10.640624 6.953125-10.164062 18.945312-26.519531 29.28125-17.140625 10.832031-38.679687 11.082031-56.078125.625-16.417968-9.867188-18.164062-24.269531-29.105468-30.597657-10.714844-6.199218-24.746094-3.058593-31.640626 7.707032-4.464843 6.957031-13.726562 8.976562-20.683593 4.511718-6.9570315-4.464843-8.980469-13.726562-4.511719-20.683593 15.347656-23.9375 46.917969-31.847657 71.835938-17.433594 17.398437 10.0625 18.914062 24.496094 29.457031 30.832031 7.570312 4.554688 17.320312 4.445313 24.789062-.273437 11.425781-7.222657 12.03125-25.742188 37.582031-34.753907l-73.722656-116.257812c-6.375-10.050781.980469-23.027344 12.65625-23.015625l98-.011719v-102c0-8.285156 6.714844-15 15-15h33v-102.003906c0-8.28125 6.714844-15 15-15h190c8.285156 0 15 6.71875 15 15v102.003906h25.996094c8.285156 0 15 6.714844 15 15 0 8.28125-6.714844 15-15 15h-73.996094v87h73.996094c8.285156 0 15 6.714844 15 15s-6.707031 15-15.027344 15c-121.570312 0-243.140625 0-364.710937 0zm233.28125 112.136718c7.070313-18.65625 32.71875-20.371093 42.480469-3.390624 4.109375 7.148437 13.238281 9.617187 20.390625 5.507812 7.152343-4.109375 9.617187-13.238281 5.507812-20.390625-4.789062-8.332031-11.585937-15.039063-19.554687-19.648437-28.765625-16.636719-65.25-3.28125-76.832032 27.375-2.910156 7.734374 1 16.367187 8.734376 19.277343 7.730468 2.914063 16.363281-.996093 19.273437-8.730469zm-156.765625 18.570313c19.390625-10.714844 18.851562-24.320313 30.074219-31.226563 11.285156-6.949218 26.207031-3.203124 32.800781 8.265626 4.109375 7.152343 13.238281 9.617187 20.390625 5.507812 7.148437-4.109375 9.617187-13.238281 5.507813-20.390625-15.0625-26.195313-48.722657-34.738281-74.402344-18.929687-15.980469 9.835937-17.417969 24.242187-28.785156 30.523437-11.363282 6.277344-25.929688 2.277344-32.214844-9.554687-3.882813-7.3125-12.960938-10.09375-20.273438-6.210938s-10.09375 12.960938-6.210937 20.273438c13.910156 26.191406 46.832031 36.265624 73.113281 21.742187zm-230.140625-36.121094c20.417969 0 23.382813 23.203125 40.894531 33.726563 27.277344 16.394531 62.433594 5.433594 75.867188-22.929688 3.527344-7.476562.324218-16.394531-7.148438-19.921875-7.476562-3.527343-16.394531-.328125-19.921875 7.148438-6 12.667969-21.703125 17.097656-33.441406 10.039062-10.542969-6.335937-12.058594-20.769531-29.457031-30.835937-24.917969-14.410156-56.488282-6.503906-71.835938 17.4375-4.46875 6.957031-2.445312 16.21875 4.511719 20.683594 6.957031 4.464843 16.214844 2.445312 20.683594-4.511719 4.386719-6.851563 11.695312-10.835938 19.847656-10.835938zm186.054687-167.894531c-8.285156 0-15 6.714844-15 15s6.714844 15 15 15c8.28125 0 15-6.714844 15-15s-6.71875-15-15-15zm142-233.75v14.5c0 8.285156 6.714844 15 15 15 8.285157 0 15-6.714844 15-15v-14.5c0-8.285156-6.714843-15-15-15-8.285156 0-15 6.714844-15 15zm-60 0v14.5c0 8.285156 6.714844 15 15 15 8.28125 0 15-6.714844 15-15v-14.5c0-8.285156-6.71875-15-15-15-8.285156 0-15 6.714844-15 15zm-35 50.75h160v-87h-160zm177 66.25v14.5c0 8.285156 6.714844 15 15 15 8.28125 0 15-6.714844 15-15v-14.5c0-8.285156-6.71875-15-15-15-8.285156 0-15 6.714844-15 15zm-130 0v14.5c0 8.285156 6.714844 15 15 15 8.28125 0 15-6.714844 15-15v-14.5c0-8.285156-6.71875-15-15-15-8.285156 0-15 6.714844-15 15zm-60.003906 0v14.5c0 8.285156 6.71875 15 15.003906 15 8.28125 0 15-6.714844 15-15v-14.5c0-8.285156-6.71875-15-15-15-8.285156 0-15.003906 6.714844-15.003906 15zm-34.996094 50.75h160v-87c-53.332031 0-106.667968 0-160 0zm0 0" fill-rule="evenodd"/></svg>