<svg width="291" height="291" xmlns="http://www.w3.org/2000/svg" xmlns:xlink="http://www.w3.org/1999/xlink" xml:space="preserve" overflow="hidden"><g transform="translate(-1217 -654)"><path d="M1368.56 744.938 1356.44 744.938C1349.77 744.938 1344.31 739.481 1344.31 732.812L1344.31 708.562C1344.31 701.894 1349.77 696.438 1356.44 696.438L1368.56 696.438C1375.23 696.438 1380.69 701.894 1380.69 708.562L1380.69 732.812C1380.69 739.481 1375.23 744.938 1368.56 744.938Z" fill="#747474"/><path d="M1459.5 805.562 1386.75 805.562 1386.75 793.438 1459.5 793.438 1459.5 805.562ZM1459.5 841.938 1386.75 841.938 1386.75 829.812 1459.5 829.812 1459.5 841.938ZM1459.5 878.312 1386.75 878.312 1386.75 866.188 1459.5 866.188 1459.5 878.312ZM1362.5 878.312 1265.5 878.312 1265.5 854.062C1265.5 850.425 1267.32 846.787 1270.35 844.362 1277.02 839.513 1285.51 835.269 1293.99 832.844 1300.66 831.025 1307.33 829.812 1314 829.812 1321.28 829.812 1327.94 831.025 1334.01 832.844 1342.49 835.269 1350.98 838.906 1357.65 844.362 1360.68 846.787 1362.5 850.425 1362.5 854.062L1362.5 878.312ZM1314 775.25C1327.34 775.25 1338.25 786.162 1338.25 799.5 1338.25 812.838 1327.34 823.75 1314 823.75 1300.66 823.75 1289.75 812.838 1289.75 799.5 1289.75 786.162 1300.66 775.25 1314 775.25ZM1471.62 732.812 1392.81 732.812C1392.81 746.15 1381.9 757.062 1368.56 757.062L1356.44 757.062C1343.1 757.062 1332.19 746.15 1332.19 732.812L1253.38 732.812C1246.71 732.812 1241.25 738.269 1241.25 744.938L1241.25 890.438C1241.25 897.106 1246.71 902.562 1253.38 902.562L1471.62 902.562C1478.29 902.562 1483.75 897.106 1483.75 890.438L1483.75 744.938C1483.75 738.269 1478.29 732.812 1471.62 732.812Z" fill="#747474"/></g></svg>