<svg width="291" height="291" xmlns="http://www.w3.org/2000/svg" xmlns:xlink="http://www.w3.org/1999/xlink" xml:space="preserve" overflow="hidden"><g transform="translate(-577 -353)"><path d="M722.5 395.438C729.169 395.438 734.625 400.894 734.625 407.562 734.625 414.231 729.169 419.688 722.5 419.688 715.831 419.688 710.375 414.231 710.375 407.562 710.375 400.894 715.831 395.438 722.5 395.438ZM824.047 494.256C823.744 492.134 822.228 490.316 820.409 489.406 818.591 488.497 816.166 488.8 814.347 490.316L780.094 516.688C778.275 517.9 777.366 520.022 777.669 522.447 777.972 524.569 779.487 526.388 781.306 527.297L794.341 532.753C787.369 562.763 762.209 585.194 731.594 588.831L731.594 465.156 807.375 465.156 807.375 446.969 731.594 446.969 731.594 436.359C745.841 431.812 754.631 417.566 752.509 402.712 750.084 388.163 737.353 377.25 722.5 377.25 707.647 377.25 694.916 388.163 692.491 403.016 690.369 417.869 699.159 432.116 713.406 436.663L713.406 446.969 637.625 446.969 637.625 465.156 713.406 465.156 713.406 588.831C682.791 584.891 657.631 562.459 650.659 532.45L663.694 526.994C665.513 526.084 667.028 524.266 667.331 522.144 667.634 520.022 666.725 517.9 664.906 516.688L630.653 490.316C628.834 489.103 626.713 488.8 624.591 489.406 622.469 490.316 621.256 492.134 620.953 494.256L615.497 537.3C615.194 539.422 616.103 541.544 617.922 542.756 619.741 543.969 621.862 544.272 623.984 543.666L633.684 539.725C641.869 570.037 665.209 594.287 695.219 603.684L719.469 616.719C721.287 617.628 723.409 617.628 725.228 616.719L749.781 603.381C779.791 593.984 802.828 569.734 811.013 539.422L820.713 543.666C822.834 544.575 824.956 544.272 826.775 542.756 828.594 541.544 829.503 539.422 829.2 537.3L824.047 494.256Z" fill="#747474"/></g></svg>