<svg width="291" height="292" xmlns="http://www.w3.org/2000/svg" xmlns:xlink="http://www.w3.org/1999/xlink" xml:space="preserve" overflow="hidden"><g transform="translate(-295 -644)"><path d="M145.5 30.3125C81.8438 30.3125 30.3125 81.8438 30.3125 145.5 30.3125 209.156 81.8438 260.688 145.5 260.688 209.156 260.688 260.688 209.156 260.688 145.5 260.688 81.8438 209.156 30.3125 145.5 30.3125ZM42.4375 145.5C42.4375 118.522 52.7437 94.2719 69.7188 75.7812 72.4469 77.2969 75.175 79.7219 75.7812 81.8438L75.7812 100.941C75.7812 102.153 76.0844 103.669 76.9938 104.578L97 130.344 98.5156 128.828C99.425 127.919 99.7281 126.403 99.1219 125.191L95.4844 119.128C93.9688 116.703 96.3937 113.672 99.1219 114.581 100.031 114.884 100.638 115.491 100.941 116.097L110.944 135.8C112.156 137.922 113.975 139.741 116.097 140.347L129.434 144.894C130.344 145.197 130.95 145.803 131.253 146.409L132.162 147.925C133.072 150.047 135.194 151.259 137.619 151.259L141.256 151.259C142.166 151.259 143.075 151.866 143.681 152.472L147.622 158.231C148.531 159.444 149.744 160.353 151.259 160.656L157.625 162.172C159.444 162.475 160.353 164.597 159.747 166.113 159.747 166.113 154.897 170.963 154.897 177.934 154.897 197.941 173.084 203.7 173.084 208.247 173.084 220.675 171.266 237.953 170.356 244.622 162.475 246.441 154.291 247.653 145.803 247.653 88.8156 248.562 42.4375 202.184 42.4375 145.5ZM184.3 240.984C190.969 235.225 202.184 225.525 206.125 221.281 211.278 215.522 212.188 206.125 212.188 206.125 212.188 206.125 233.406 200.366 233.406 184.906 233.406 174.297 212.188 169.75 212.188 169.75 208.55 157.928 190.666 151.562 175.812 151.562 172.478 151.562 160.656 157.625 160.656 157.625L154.594 154.594 154.594 145.5C154.594 143.681 153.381 142.469 151.562 142.469L145.5 142.469 145.5 133.375C145.5 131.556 144.287 130.344 142.469 130.344L139.438 130.344 136.103 132.466C133.072 134.588 128.828 133.375 127.312 130.041 127.312 130.041 124.281 125.797 124.281 123.978 124.281 110.944 139.438 111.853 139.438 111.853L146.106 111.853C147.622 111.853 148.834 112.763 149.137 114.278L150.956 121.856C151.259 123.069 152.472 124.281 153.988 124.281L155.2 124.281C156.716 124.281 157.928 123.372 158.231 121.856L160.353 110.641C160.656 109.731 160.959 108.822 161.566 107.912L170.053 97.3031C171.872 95.1813 174.297 93.9688 177.025 93.9688L184.906 93.9688C186.725 93.9688 187.938 92.7562 187.938 90.9375L187.938 87.9062 187.028 86.9969C185.209 85.1781 186.422 81.8438 189.15 81.8438L190.969 81.8438C192.787 81.8438 194 83.0563 194 84.875 194 86.6937 195.213 87.9062 197.031 87.9062L200.062 87.9062 201.881 80.025C202.488 77.2969 201.275 74.8719 199.153 73.3563L173.387 57.8969C173.084 57.5938 172.478 57.5938 171.872 57.5938L166.719 57.5938C163.384 57.5938 160.656 60.3219 160.656 63.6562L160.656 66.6875C160.656 68.5062 159.444 69.7188 157.625 69.7188L154.594 69.7188 151.562 66.6875 142.469 66.6875C140.65 66.6875 139.438 65.475 139.438 63.6562L139.438 56.0781C139.438 55.1688 139.741 54.2594 140.65 53.6531L160.05 45.4688 163.081 50.6219C163.688 51.2281 164.294 51.5312 165.203 51.5312L172.781 51.5312C174.6 51.5312 175.812 50.3188 175.812 48.5L175.812 46.9844C217.947 60.0187 248.562 99.1219 248.562 145.5 248.562 188.544 221.887 225.525 184.3 240.984Z" fill="#FFFFFF" transform="matrix(1 0 0 1.00344 295 644)"/><path d="M182.784 132.769 168.234 127.919C167.022 127.616 166.113 127.616 164.9 127.919L154.594 130.344C153.684 130.95 153.381 132.162 154.594 133.375L168.537 133.375C169.447 133.375 170.053 133.375 170.659 133.678L181.269 137.922C183.088 138.528 184.906 137.316 184.906 135.497 184.906 134.284 183.997 133.072 182.784 132.769Z" fill="#FFFFFF" transform="matrix(1 0 0 1.00344 295 644)"/></g></svg>