<?xml version="1.0" encoding="UTF-8" standalone="no"?>
<!-- Created with Inkscape (http://www.inkscape.org/) -->

<svg
   xmlns:dc="http://purl.org/dc/elements/1.1/"
   xmlns:cc="http://creativecommons.org/ns#"
   xmlns:rdf="http://www.w3.org/1999/02/22-rdf-syntax-ns#"
   xmlns:svg="http://www.w3.org/2000/svg"
   xmlns="http://www.w3.org/2000/svg"
   xmlns:sodipodi="http://sodipodi.sourceforge.net/DTD/sodipodi-0.dtd"
   xmlns:inkscape="http://www.inkscape.org/namespaces/inkscape"
   version="1.1"
   id="svg2"
   xml:space="preserve"
   width="587.61334"
   height="276.57333"
   viewBox="0 0 587.61334 276.57333"
   sodipodi:docname="main.svg"
   inkscape:version="0.92.4 (5da689c313, 2019-01-14)"><metadata
     id="metadata8"><rdf:RDF><cc:Work
         rdf:about=""><dc:format>image/svg+xml</dc:format><dc:type
           rdf:resource="http://purl.org/dc/dcmitype/StillImage" /><dc:title></dc:title></cc:Work></rdf:RDF></metadata><defs
     id="defs6"><clipPath
       clipPathUnits="userSpaceOnUse"
       id="clipPath18"><path
         d="M 50.4,518.16 H 547.08 V 738 H 50.4 Z"
         id="path16"
         inkscape:connector-curvature="0"
         style="clip-rule:evenodd" /></clipPath><clipPath
       clipPathUnits="userSpaceOnUse"
       id="clipPath28"><path
         d="M 50.4,518.16 H 547.08 V 738 H 50.4 Z"
         id="path26"
         inkscape:connector-curvature="0"
         style="clip-rule:evenodd" /></clipPath><clipPath
       clipPathUnits="userSpaceOnUse"
       id="clipPath44"><path
         d="M 68.04,547.92 H 401.16 V 698.04 H 68.04 Z"
         id="path42"
         inkscape:connector-curvature="0"
         style="clip-rule:evenodd" /></clipPath><clipPath
       clipPathUnits="userSpaceOnUse"
       id="clipPath54"><path
         d="M 68.04,547.92 H 401.16 V 698.04 H 68.04 Z"
         id="path52"
         inkscape:connector-curvature="0"
         style="clip-rule:evenodd" /></clipPath><clipPath
       clipPathUnits="userSpaceOnUse"
       id="clipPath64"><path
         d="M 68.04,547.92 H 401.16 V 698.04 H 68.04 Z"
         id="path62"
         inkscape:connector-curvature="0"
         style="clip-rule:evenodd" /></clipPath><clipPath
       clipPathUnits="userSpaceOnUse"
       id="clipPath74"><path
         d="M 68.04,547.92 H 401.16 V 698.04 H 68.04 Z"
         id="path72"
         inkscape:connector-curvature="0"
         style="clip-rule:evenodd" /></clipPath><clipPath
       clipPathUnits="userSpaceOnUse"
       id="clipPath84"><path
         d="M 50.4,530.64 H 491.04 V 738 H 50.4 Z"
         id="path82"
         inkscape:connector-curvature="0"
         style="clip-rule:evenodd" /></clipPath><clipPath
       clipPathUnits="userSpaceOnUse"
       id="clipPath96"><path
         d="M 50.4,530.64 H 491.04 V 738 H 50.4 Z"
         id="path94"
         inkscape:connector-curvature="0"
         style="clip-rule:evenodd" /></clipPath><clipPath
       clipPathUnits="userSpaceOnUse"
       id="clipPath108"><path
         d="M 50.4,530.64 H 491.04 V 738 H 50.4 Z"
         id="path106"
         inkscape:connector-curvature="0"
         style="clip-rule:evenodd" /></clipPath><clipPath
       clipPathUnits="userSpaceOnUse"
       id="clipPath120"><path
         d="M 50.4,530.64 H 491.04 V 738 H 50.4 Z"
         id="path118"
         inkscape:connector-curvature="0"
         style="clip-rule:evenodd" /></clipPath><clipPath
       clipPathUnits="userSpaceOnUse"
       id="clipPath132"><path
         d="M 50.4,530.64 H 491.04 V 738 H 50.4 Z"
         id="path130"
         inkscape:connector-curvature="0"
         style="clip-rule:evenodd" /></clipPath><clipPath
       clipPathUnits="userSpaceOnUse"
       id="clipPath144"><path
         d="M 50.4,530.64 H 491.04 V 738 H 50.4 Z"
         id="path142"
         inkscape:connector-curvature="0"
         style="clip-rule:evenodd" /></clipPath><clipPath
       clipPathUnits="userSpaceOnUse"
       id="clipPath156"><path
         d="M 50.4,530.64 H 491.04 V 738 H 50.4 Z"
         id="path154"
         inkscape:connector-curvature="0"
         style="clip-rule:evenodd" /></clipPath><clipPath
       clipPathUnits="userSpaceOnUse"
       id="clipPath168"><path
         d="M 50.4,530.64 H 491.04 V 738 H 50.4 Z"
         id="path166"
         inkscape:connector-curvature="0"
         style="clip-rule:evenodd" /></clipPath><clipPath
       clipPathUnits="userSpaceOnUse"
       id="clipPath180"><path
         d="M 50.4,530.64 H 491.04 V 738 H 50.4 Z"
         id="path178"
         inkscape:connector-curvature="0"
         style="clip-rule:evenodd" /></clipPath><clipPath
       clipPathUnits="userSpaceOnUse"
       id="clipPath192"><path
         d="M 50.4,530.64 H 491.04 V 738 H 50.4 Z"
         id="path190"
         inkscape:connector-curvature="0"
         style="clip-rule:evenodd" /></clipPath><clipPath
       clipPathUnits="userSpaceOnUse"
       id="clipPath204"><path
         d="M 50.4,530.64 H 491.04 V 738 H 50.4 Z"
         id="path202"
         inkscape:connector-curvature="0"
         style="clip-rule:evenodd" /></clipPath><clipPath
       clipPathUnits="userSpaceOnUse"
       id="clipPath216"><path
         d="M 50.4,530.64 H 491.04 V 738 H 50.4 Z"
         id="path214"
         inkscape:connector-curvature="0"
         style="clip-rule:evenodd" /></clipPath><clipPath
       clipPathUnits="userSpaceOnUse"
       id="clipPath228"><path
         d="M 50.4,530.64 H 491.04 V 738 H 50.4 Z"
         id="path226"
         inkscape:connector-curvature="0"
         style="clip-rule:evenodd" /></clipPath><clipPath
       clipPathUnits="userSpaceOnUse"
       id="clipPath240"><path
         d="M 50.4,530.64 H 491.04 V 738 H 50.4 Z"
         id="path238"
         inkscape:connector-curvature="0"
         style="clip-rule:evenodd" /></clipPath><clipPath
       clipPathUnits="userSpaceOnUse"
       id="clipPath252"><path
         d="M 50.4,530.64 H 491.04 V 738 H 50.4 Z"
         id="path250"
         inkscape:connector-curvature="0"
         style="clip-rule:evenodd" /></clipPath><clipPath
       clipPathUnits="userSpaceOnUse"
       id="clipPath264"><path
         d="m 50.4,696 h 439.32 v 42 H 50.4 Z"
         id="path262"
         inkscape:connector-curvature="0"
         style="clip-rule:evenodd" /></clipPath><clipPath
       clipPathUnits="userSpaceOnUse"
       id="clipPath276"><path
         d="m 50.4,696 h 439.32 v 42 H 50.4 Z"
         id="path274"
         inkscape:connector-curvature="0"
         style="clip-rule:evenodd" /></clipPath><clipPath
       clipPathUnits="userSpaceOnUse"
       id="clipPath288"><path
         d="M 50.4,530.64 H 491.04 V 738 H 50.4 Z"
         id="path286"
         inkscape:connector-curvature="0"
         style="clip-rule:evenodd" /></clipPath><clipPath
       clipPathUnits="userSpaceOnUse"
       id="clipPath300"><path
         d="M 50.4,530.64 H 491.04 V 738 H 50.4 Z"
         id="path298"
         inkscape:connector-curvature="0"
         style="clip-rule:evenodd" /></clipPath><clipPath
       clipPathUnits="userSpaceOnUse"
       id="clipPath312"><path
         d="m 50.4,696 h 439.32 v 42 H 50.4 Z"
         id="path310"
         inkscape:connector-curvature="0"
         style="clip-rule:evenodd" /></clipPath><clipPath
       clipPathUnits="userSpaceOnUse"
       id="clipPath324"><path
         d="M 50.4,518.16 H 547.08 V 738 H 50.4 Z"
         id="path322"
         inkscape:connector-curvature="0"
         style="clip-rule:evenodd" /></clipPath><clipPath
       clipPathUnits="userSpaceOnUse"
       id="clipPath336"><path
         d="M 50.4,518.16 H 547.08 V 738 H 50.4 Z"
         id="path334"
         inkscape:connector-curvature="0"
         style="clip-rule:evenodd" /></clipPath><clipPath
       clipPathUnits="userSpaceOnUse"
       id="clipPath344"><path
         d="M 50.4,518.16 H 547.08 V 738 H 50.4 Z"
         id="path342"
         inkscape:connector-curvature="0"
         style="clip-rule:evenodd" /></clipPath><clipPath
       clipPathUnits="userSpaceOnUse"
       id="clipPath356"><path
         d="M 50.4,518.16 H 547.08 V 738 H 50.4 Z"
         id="path354"
         inkscape:connector-curvature="0"
         style="clip-rule:evenodd" /></clipPath><clipPath
       clipPathUnits="userSpaceOnUse"
       id="clipPath368"><path
         d="M 50.4,518.16 H 547.08 V 738 H 50.4 Z"
         id="path366"
         inkscape:connector-curvature="0"
         style="clip-rule:evenodd" /></clipPath><clipPath
       clipPathUnits="userSpaceOnUse"
       id="clipPath380"><path
         d="M 50.4,518.16 H 547.08 V 738 H 50.4 Z"
         id="path378"
         inkscape:connector-curvature="0"
         style="clip-rule:evenodd" /></clipPath><clipPath
       clipPathUnits="userSpaceOnUse"
       id="clipPath392"><path
         d="M 50.4,518.16 H 547.08 V 738 H 50.4 Z"
         id="path390"
         inkscape:connector-curvature="0"
         style="clip-rule:evenodd" /></clipPath><clipPath
       id="clipPath1152"
       clipPathUnits="userSpaceOnUse"><rect
         y="10.398973"
         x="9.1977921"
         height="69.917221"
         width="95.440437"
         id="rect1154"
         style="fill:#c09600;stroke-width:0.946585" /></clipPath></defs><sodipodi:namedview
     pagecolor="#ffffff"
     bordercolor="#666666"
     borderopacity="1"
     objecttolerance="10"
     gridtolerance="10"
     guidetolerance="10"
     inkscape:pageopacity="0"
     inkscape:pageshadow="2"
     inkscape:window-width="1920"
     inkscape:window-height="1217"
     id="namedview4"
     showgrid="false"
     inkscape:pagecheckerboard="true"
     inkscape:zoom="1"
     inkscape:cx="340.8"
     inkscape:cy="-179.42665"
     inkscape:window-x="-8"
     inkscape:window-y="-8"
     inkscape:window-maximized="1"
     inkscape:current-layer="g10" /><g
     id="g10"
     inkscape:groupmode="layer"
     inkscape:label="main"
     transform="matrix(1.3333333,0,0,-1.3333333,-67.199998,983.99998)"><g
       id="g12"><g
         id="g14"
         clip-path="url(#clipPath18)"><path
           d="M 50.4,530.64 H 491.04 V 738 H 50.4 Z"
           style="fill:none;stroke:#000000;stroke-width:0.14;stroke-linecap:butt;stroke-linejoin:miter;stroke-miterlimit:10;stroke-dasharray:none;stroke-opacity:0"
           id="path20"
           inkscape:connector-curvature="0" /></g></g><g
       id="g22"><g
         id="g24"
         clip-path="url(#clipPath28)"><path
           d="M 50.4,530.64 H 491.04 V 738 H 50.4 Z"
           style="fill:#ffffff;fill-opacity:1;fill-rule:evenodd;stroke:none"
           id="path30"
           inkscape:connector-curvature="0" /></g></g><path
       d="M 68.103,570 H 400.5 M 68.103,591.24 H 400.5 M 68.103,612.6 H 400.5 M 68.103,633.96 H 400.5 M 68.103,655.32 H 400.5 M 68.103,676.68 H 400.5 M 68.103,698.03 H 400.5"
       style="fill:none;stroke:#d9d9d9;stroke-width:0.75;stroke-linecap:butt;stroke-linejoin:round;stroke-miterlimit:10;stroke-dasharray:none;stroke-opacity:1"
       id="path32"
       inkscape:connector-curvature="0" /><path
       d="M 68.103,548.6 H 400.5"
       style="fill:none;stroke:#000000;stroke-width:0.75;stroke-linecap:butt;stroke-linejoin:round;stroke-miterlimit:10;stroke-dasharray:none;stroke-opacity:1"
       id="path34"
       inkscape:connector-curvature="0" /><path
       d="m 68.103,548.6 v -3.02 m 10.377,3.02 v -3.02 m 10.44,3.02 v -3.02 m 10.32,3.02 v -3.02 m 10.44,3.02 v -3.02 M 120,548.6 v -3.02 m 10.44,3.02 v -3.02 m 10.32,3.02 v -3.02 m 10.44,3.02 v -3.02 m 10.44,3.02 v -3.02 m 10.32,3.02 v -3.02 m 10.44,3.02 v -3.02 m 10.32,3.02 v -3.02 m 10.44,3.02 v -3.02 m 10.32,3.02 v -3.02 m 10.44,3.02 v -3.02 m 10.44,3.02 v -3.02 m 10.32,3.02 v -3.02 m 10.44,3.02 v -3.02 m 10.32,3.02 v -3.02 m 10.44,3.02 v -3.02 m 10.32,3.02 v -3.02 m 10.44,3.02 v -3.02 m 10.32,3.02 v -3.02 m 10.44,3.02 v -3.02 m 10.44,3.02 v -3.02 m 10.32,3.02 v -3.02 m 10.44,3.02 v -3.02 m 10.32,3.02 v -3.02 m 10.44,3.02 v -3.02 m 10.32,3.02 v -3.02 m 10.44,3.02 v -3.02 m 10.38,3.02 v -3.02"
       style="fill:none;stroke:#000000;stroke-width:0.75;stroke-linecap:butt;stroke-linejoin:round;stroke-miterlimit:10;stroke-dasharray:none;stroke-opacity:1"
       id="path36"
       inkscape:connector-curvature="0" /><g
       id="g38"><g
         id="g40"
         clip-path="url(#clipPath44)"><path
           d="m 68.103,587.4 10.377,-0.24 10.44,0.36 10.32,1.2 10.44,0.24 10.32,0.48 10.44,1.8 10.32,0.84 10.44,0.6 10.44,-0.12 10.32,2.04 10.44,-1.44 10.32,0.12 10.44,0.84 10.32,0.6 10.44,0.42 10.44,-0.78 10.32,0.6 10.44,-0.72 10.32,-5.64 10.44,2.4 10.32,-2.4 10.44,-4.56 10.32,1.2 10.44,-0.12 10.44,-4.92 10.32,-2.64 10.44,-0.84 10.32,-1.2 10.44,-3.96 10.32,-4.25 10.44,2.69 10.38,-1.44"
           style="fill:none;stroke:#000000;stroke-width:2.25;stroke-linecap:round;stroke-linejoin:round;stroke-miterlimit:10;stroke-dasharray:none;stroke-opacity:1"
           id="path46"
           inkscape:connector-curvature="0" /></g></g><g
       id="g48"><g
         id="g50"
         clip-path="url(#clipPath54)"><path
           d="m 68.103,570.51 10.377,0.45 10.44,0.72 10.32,0.6 10.44,0.6 10.32,1.08 10.44,0.36 10.32,0.24 10.44,-0.48 10.44,0.12 10.32,0.96 10.44,-1.08 10.32,0.84 10.44,-0.84 10.32,0.12 10.44,-0.36 10.44,-0.24 10.32,1.56 10.44,0.24 10.32,-0.48 10.44,1.32 10.32,0.36 10.44,1.32 10.32,0.72 10.44,0.6 10.44,0.96 10.32,0.24 10.44,-0.48 10.32,3.36 10.44,1.2 10.32,-0.6 h 10.44 l 10.38,1.9"
           style="fill:none;stroke:#5b9bd5;stroke-width:2.25;stroke-linecap:round;stroke-linejoin:round;stroke-miterlimit:10;stroke-dasharray:none;stroke-opacity:1"
           id="path56"
           inkscape:connector-curvature="0" /></g></g><g
       id="g58"><g
         id="g60"
         clip-path="url(#clipPath64)"><path
           d="m 68.103,595.2 10.377,-1.08 10.44,0.96 10.32,0.12 10.44,0.84 10.32,-0.12 10.44,1.92 10.32,0.36 10.44,1.08 10.44,1.2 10.32,0.96 10.44,0.24 10.32,-0.12 10.44,1.44 10.32,1.56 10.44,0.25 10.44,-0.61 10.32,-0.36 10.44,-3.6 10.32,-2.88 10.44,0.48 10.32,-1.08 10.44,-1.32 10.32,0.6 10.44,0.6 10.44,0.84 10.32,0.48 10.44,0.36 10.32,1.08 10.44,-0.12 10.32,-7.05 10.44,4.05 10.38,0.36"
           style="fill:none;stroke:#bd732a;stroke-width:2.25;stroke-linecap:round;stroke-linejoin:round;stroke-miterlimit:10;stroke-dasharray:none;stroke-opacity:1"
           id="path66"
           inkscape:connector-curvature="0" /></g></g><g
       id="g68"><g
         id="g70"
         clip-path="url(#clipPath74)"><path
           d="m 68.103,656.16 10.377,-0.96 10.44,2.04 10.32,2.04 10.44,1.68 10.32,1.32 10.44,4.08 10.32,1.56 10.44,0.96 10.44,1.44 10.32,3.96 10.44,-2.28 10.32,0.84 10.44,1.44 10.32,2.28 10.44,0.24 10.44,-1.56 10.32,1.78 10.44,-4.06 10.32,-9 10.44,4.08 10.32,-3 10.44,-4.68 10.32,2.64 10.44,1.2 10.44,-3.24 10.32,-2.04 10.44,-0.72 10.32,3.12 10.44,-2.88 10.32,-11.99 10.44,6.83 10.38,0.72"
           style="fill:none;stroke:#7f7f7f;stroke-width:2.25;stroke-linecap:round;stroke-linejoin:round;stroke-miterlimit:10;stroke-dasharray:none;stroke-opacity:1"
           id="path76"
           inkscape:connector-curvature="0" /></g></g><g
       id="g78"><g
         id="g80"
         clip-path="url(#clipPath84)"><text
           transform="matrix(1,0,0,-1,53.952,545.45)"
           style="font-variant:normal;font-weight:normal;font-size:9.96000004px;font-family:Arial;-inkscape-font-specification:ArialMT;writing-mode:lr-tb;fill:#000000;fill-opacity:1;fill-rule:nonzero;stroke:none"
           id="text88"><tspan
             x="0"
             y="0"
             id="tspan86">0</tspan></text>
</g></g><g
       id="g90"><g
         id="g92"
         clip-path="url(#clipPath96)"><text
           transform="matrix(1,0,0,-1,53.952,566.81)"
           style="font-variant:normal;font-weight:normal;font-size:9.98400021px;font-family:Arial;-inkscape-font-specification:ArialMT;writing-mode:lr-tb;fill:#000000;fill-opacity:1;fill-rule:nonzero;stroke:none"
           id="text100"><tspan
             x="0"
             y="0"
             id="tspan98">1</tspan></text>
</g></g><g
       id="g102"><g
         id="g104"
         clip-path="url(#clipPath108)"><text
           transform="matrix(1,0,0,-1,53.952,588.14)"
           style="font-variant:normal;font-weight:normal;font-size:9.96000004px;font-family:Arial;-inkscape-font-specification:ArialMT;writing-mode:lr-tb;fill:#000000;fill-opacity:1;fill-rule:nonzero;stroke:none"
           id="text112"><tspan
             x="0"
             y="0"
             id="tspan110">2</tspan></text>
</g></g><g
       id="g114"><g
         id="g116"
         clip-path="url(#clipPath120)"><text
           transform="matrix(1,0,0,-1,53.952,609.5)"
           style="font-variant:normal;font-weight:normal;font-size:9.96000004px;font-family:Arial;-inkscape-font-specification:ArialMT;writing-mode:lr-tb;fill:#000000;fill-opacity:1;fill-rule:nonzero;stroke:none"
           id="text124"><tspan
             x="0"
             y="0"
             id="tspan122">3</tspan></text>
</g></g><g
       id="g126"><g
         id="g128"
         clip-path="url(#clipPath132)"><text
           transform="matrix(1,0,0,-1,53.952,630.84)"
           style="font-variant:normal;font-weight:normal;font-size:9.96000004px;font-family:Arial;-inkscape-font-specification:ArialMT;writing-mode:lr-tb;fill:#000000;fill-opacity:1;fill-rule:nonzero;stroke:none"
           id="text136"><tspan
             x="0"
             y="0"
             id="tspan134">4</tspan></text>
</g></g><g
       id="g138"><g
         id="g140"
         clip-path="url(#clipPath144)"><text
           transform="matrix(1,0,0,-1,53.952,652.2)"
           style="font-variant:normal;font-weight:normal;font-size:9.96000004px;font-family:Arial;-inkscape-font-specification:ArialMT;writing-mode:lr-tb;fill:#000000;fill-opacity:1;fill-rule:nonzero;stroke:none"
           id="text148"><tspan
             x="0"
             y="0"
             id="tspan146">5</tspan></text>
</g></g><g
       id="g150"><g
         id="g152"
         clip-path="url(#clipPath156)"><text
           transform="matrix(1,0,0,-1,53.952,673.56)"
           style="font-variant:normal;font-weight:normal;font-size:9.98400021px;font-family:Arial;-inkscape-font-specification:ArialMT;writing-mode:lr-tb;fill:#000000;fill-opacity:1;fill-rule:nonzero;stroke:none"
           id="text160"><tspan
             x="0"
             y="0"
             id="tspan158">6</tspan></text>
</g></g><g
       id="g162"><g
         id="g164"
         clip-path="url(#clipPath168)"><text
           transform="matrix(1,0,0,-1,53.952,694.9)"
           style="font-variant:normal;font-weight:normal;font-size:9.96000004px;font-family:Arial;-inkscape-font-specification:ArialMT;writing-mode:lr-tb;fill:#000000;fill-opacity:1;fill-rule:nonzero;stroke:none"
           id="text172"><tspan
             x="0"
             y="0"
             id="tspan170">7</tspan></text>
</g></g><g
       id="g174"><g
         id="g176"
         clip-path="url(#clipPath180)"><text
           transform="matrix(1,0,0,-1,57,533.52)"
           style="font-variant:normal;font-weight:normal;font-size:9.96000004px;font-family:Arial;-inkscape-font-specification:ArialMT;writing-mode:lr-tb;fill:#000000;fill-opacity:1;fill-rule:nonzero;stroke:none"
           id="text184"><tspan
             x="0 5.5377598 11.14524 16.683001"
             y="0"
             sodipodi:role="line"
             id="tspan182">1990</tspan></text>
</g></g><g
       id="g186"><g
         id="g188"
         clip-path="url(#clipPath192)"><text
           transform="matrix(1,0,0,-1,108.94,533.52)"
           style="font-variant:normal;font-weight:normal;font-size:9.96000004px;font-family:Arial;-inkscape-font-specification:ArialMT;writing-mode:lr-tb;fill:#000000;fill-opacity:1;fill-rule:nonzero;stroke:none"
           id="text196"><tspan
             x="0 5.5377598 11.14524 16.683001"
             y="0"
             sodipodi:role="line"
             id="tspan194">1995</tspan></text>
</g></g><g
       id="g198"><g
         id="g200"
         clip-path="url(#clipPath204)"><text
           transform="matrix(1,0,0,-1,160.9,533.52)"
           style="font-variant:normal;font-weight:normal;font-size:9.96000004px;font-family:Arial;-inkscape-font-specification:ArialMT;writing-mode:lr-tb;fill:#000000;fill-opacity:1;fill-rule:nonzero;stroke:none"
           id="text208"><tspan
             x="0 5.5377598 11.14524 16.683001"
             y="0"
             sodipodi:role="line"
             id="tspan206">2000</tspan></text>
</g></g><g
       id="g210"><g
         id="g212"
         clip-path="url(#clipPath216)"><text
           transform="matrix(1,0,0,-1,212.83,533.52)"
           style="font-variant:normal;font-weight:normal;font-size:9.96000004px;font-family:Arial;-inkscape-font-specification:ArialMT;writing-mode:lr-tb;fill:#000000;fill-opacity:1;fill-rule:nonzero;stroke:none"
           id="text220"><tspan
             x="0 5.5377598 11.14524 16.683001"
             y="0"
             sodipodi:role="line"
             id="tspan218">2005</tspan></text>
</g></g><g
       id="g222"><g
         id="g224"
         clip-path="url(#clipPath228)"><text
           transform="matrix(1,0,0,-1,264.79,533.52)"
           style="font-variant:normal;font-weight:normal;font-size:9.96000004px;font-family:Arial;-inkscape-font-specification:ArialMT;writing-mode:lr-tb;fill:#000000;fill-opacity:1;fill-rule:nonzero;stroke:none"
           id="text232"><tspan
             x="0 5.5377598 11.14524 16.683001"
             y="0"
             sodipodi:role="line"
             id="tspan230">2010</tspan></text>
</g></g><g
       id="g234"><g
         id="g236"
         clip-path="url(#clipPath240)"><text
           transform="matrix(1,0,0,-1,316.73,533.52)"
           style="font-variant:normal;font-weight:normal;font-size:9.96000004px;font-family:Arial;-inkscape-font-specification:ArialMT;writing-mode:lr-tb;fill:#000000;fill-opacity:1;fill-rule:nonzero;stroke:none"
           id="text244"><tspan
             x="0 5.5377598 11.14524 16.683001"
             y="0"
             sodipodi:role="line"
             id="tspan242">2015</tspan></text>
</g></g><g
       id="g246"><g
         id="g248"
         clip-path="url(#clipPath252)"><text
           transform="matrix(1,0,0,-1,368.66,533.52)"
           style="font-variant:normal;font-weight:normal;font-size:9.96000004px;font-family:Arial;-inkscape-font-specification:ArialMT;writing-mode:lr-tb;fill:#000000;fill-opacity:1;fill-rule:nonzero;stroke:none"
           id="text256"><tspan
             x="0 5.5377598 11.14524 16.683001"
             y="0"
             sodipodi:role="line"
             id="tspan254">2020</tspan></text>
</g></g><g
       id="g258"><g
         id="g260"
         clip-path="url(#clipPath264)"><text
           transform="matrix(1,0,0,-1,52.56,726.48)"
           style="font-variant:normal;font-weight:bold;font-size:9.96000004px;font-family:Arial;-inkscape-font-specification:Arial-BoldMT;writing-mode:lr-tb;fill:#000000;fill-opacity:1;fill-rule:nonzero;stroke:none"
           id="text268"><tspan
             x="0 6.8425202 12.948 19.05348 25.15896 30.69672 33.465599 36.672722 43.863838 46.632721 53.236198 56.005081 58.863602 64.40136 69.899277 73.743843 79.849319 85.954803 92.06028 94.928757 101.03424 103.80312 109.88868 115.42644 118.19532 124.3008 129.83856 132.68712 138.22488 147.07932 149.84821 155.38596 160.88388 163.65276 169.73833 175.87367 181.41144 184.37952 187.72607 191.57063 197.67612 206.53056 209.29944 214.8372 220.94267 226.48044 230.30508 236.41055 241.80888 244.79688 250.33464 256.4202 262.54559 268.08337 274.16891 283.05325 289.15872 292.50528 295.27417 301.35971 307.49509 310.36356 316.46906 321.86737 324.73584 328.0824 334.18787 339.72565 345.22357 347.99243 350.76132 353.60989 356.95645 363.06192 368.59967 371.36856 374.0976 379.63535 385.72092 391.84631 395.69089 401.22864 406.72656"
             y="0"
             sodipodi:role="line"
             id="tspan266">Annual U.S. carbon dioxide emissions from energy consumption by fossil fuel source </tspan></text>
</g></g><g
       id="g270"><g
         id="g272"
         clip-path="url(#clipPath276)"><text
           transform="matrix(1,0,0,-1,52.56,714.96)"
           style="font-variant:normal;font-weight:bold;font-size:9.98400021px;font-family:Arial;-inkscape-font-specification:Arial-BoldMT;writing-mode:lr-tb;fill:#000000;fill-opacity:1;fill-rule:nonzero;stroke:none"
           id="text280"><tspan
             x="0 3.354624 8.8757763 14.396928 19.918079"
             y="0"
             sodipodi:role="line"
             id="tspan278">(1990</tspan></text>
</g></g><g
       id="g282"><g
         id="g284"
         clip-path="url(#clipPath288)"><text
           transform="matrix(1,0,0,-1,78.024,714.96)"
           style="font-variant:normal;font-weight:bold;font-size:9.98400021px;font-family:Arial;-inkscape-font-specification:Arial-BoldMT;writing-mode:lr-tb;fill:#000000;fill-opacity:1;fill-rule:nonzero;stroke:none"
           id="text292"><tspan
             x="0"
             y="0"
             id="tspan290">–</tspan></text>
</g></g><g
       id="g294"><g
         id="g296"
         clip-path="url(#clipPath300)"><text
           transform="matrix(1,0,0,-1,83.544,714.96)"
           style="font-variant:normal;font-weight:bold;font-size:9.98400021px;font-family:Arial;-inkscape-font-specification:Arial-BoldMT;writing-mode:lr-tb;fill:#000000;fill-opacity:1;fill-rule:nonzero;stroke:none"
           id="text304"><tspan
             x="0 5.5200038 11.040008 16.560013 22.080015"
             y="0"
             sodipodi:role="line"
             id="tspan302">2022)</tspan></text>
</g></g><g
       id="g306"><g
         id="g308"
         clip-path="url(#clipPath312)"><text
           transform="matrix(1,0,0,-1,52.56,703.42)"
           style="font-variant:normal;font-weight:normal;font-size:9.96000004px;font-family:Arial;-inkscape-font-specification:ArialMT;writing-mode:lr-tb;fill:#000000;fill-opacity:1;fill-rule:nonzero;stroke:none"
           id="text316"><tspan
             x="0 5.5377598 7.6791601 9.8404799 12.0018 14.16312 19.70088 25.198799 28.30632 36.81216 42.349918 45.118801 48.435478 50.616718 55.646519 58.285919 61.054798 66.59256 72.090477 77.120277 79.988762 85.52652 88.375076 91.014481 96.044281 101.58204 104.89872 110.43648 115.97424 121.512 124.3506 129.88837 132.02975 137.56752 142.57739 144.73872 150.27647"
             y="0"
             sodipodi:role="line"
             id="tspan314">billion metric tons of carbon dioxide</tspan></text>
</g></g><g
       id="g318"><g
         id="g320"
         clip-path="url(#clipPath324)"><text
           transform="matrix(1,0,0,-1,409.54,650.4)"
           style="font-variant:normal;font-weight:bold;font-size:9.98400021px;font-family:Arial;-inkscape-font-specification:Arial-BoldMT;writing-mode:lr-tb;fill:#7f7f7f;fill-opacity:1;fill-rule:nonzero;stroke:none"
           id="text328"><tspan
             x="0 3.354624 9.4548483 12.82944 18.350592"
             y="0"
             sodipodi:role="line"
             id="tspan326">total</tspan></text>
</g></g><g
       id="g330"><g
         id="g332"
         clip-path="url(#clipPath336)" /></g><g
       id="g338"><g
         id="g340"
         clip-path="url(#clipPath344)"><text
           transform="matrix(1,0,0,-1,433.42,650.4)"
           style="font-variant:normal;font-weight:bold;font-size:9.98400021px;font-family:Arial;-inkscape-font-specification:Arial-BoldMT;writing-mode:lr-tb;fill:#7f7f7f;fill-opacity:1;fill-rule:nonzero;stroke:none"
           id="text348"><tspan
             x="0 5.521152 14.396928 17.17248 22.683647 28.2048 30.980352 37.080578 43.180801"
             y="0"
             sodipodi:role="line"
             id="tspan346">emissions</tspan></text>
</g></g><g
       id="g350"><g
         id="g352"
         clip-path="url(#clipPath356)"><text
           transform="matrix(1,0,0,-1,409.54,604.3)"
           style="font-variant:normal;font-weight:bold;font-size:9.96000004px;font-family:Arial;-inkscape-font-specification:Arial-BoldMT;writing-mode:lr-tb;fill:#bd732a;fill-opacity:1;fill-rule:nonzero;stroke:none"
           id="text360"><tspan
             x="0 6.1054802 11.64324 14.95992 18.83436 24.91992 27.688801 33.226559 39.332039 48.186481 51.084839 56.622601 62.70816 68.833557"
             y="0"
             sodipodi:role="line"
             id="tspan358">petroleum and </tspan></text>
</g></g><g
       id="g362"><g
         id="g364"
         clip-path="url(#clipPath368)"><text
           transform="matrix(1,0,0,-1,409.54,592.9)"
           style="font-variant:normal;font-weight:bold;font-size:9.96000004px;font-family:Arial;-inkscape-font-specification:Arial-BoldMT;writing-mode:lr-tb;fill:#bd732a;fill-opacity:1;fill-rule:nonzero;stroke:none"
           id="text372"><tspan
             x="0 2.7688799 5.5377598 11.62332 17.74872 20.517599 26.603161 29.37204 32.738522 38.844002 44.38176 47.150639"
             y="0"
             sodipodi:role="line"
             id="tspan370">liquid fuels</tspan></text>
</g></g><g
       id="g374"><g
         id="g376"
         clip-path="url(#clipPath380)"><text
           transform="matrix(1,0,0,-1,409.54,581.38)"
           style="font-variant:normal;font-weight:bold;font-size:9.96000004px;font-family:Arial;-inkscape-font-specification:Arial-BoldMT;writing-mode:lr-tb;fill:#0096d7;fill-opacity:1;fill-rule:nonzero;stroke:none"
           id="text384"><tspan
             x="0 6.1054802 11.64324 14.95992 21.09528 24.93984 30.4776 33.246479 36.085079 42.190559 47.728321"
             y="0"
             sodipodi:role="line"
             id="tspan382">natural gas</tspan></text>
</g></g><g
       id="g386"><g
         id="g388"
         clip-path="url(#clipPath392)"><text
           transform="matrix(1,0,0,-1,409.54,565.3)"
           style="font-variant:normal;font-weight:bold;font-size:9.96000004px;font-family:Arial;-inkscape-font-specification:Arial-BoldMT;writing-mode:lr-tb;fill:#000000;fill-opacity:1;fill-rule:nonzero;stroke:none"
           id="text396"><tspan
             x="0 5.5377598 11.62332 17.161079 19.92996"
             y="0"
             sodipodi:role="line"
             id="tspan394">coal </tspan></text>
</g></g><g
       transform="matrix(0.25089208,0,0,-0.25089208,457.59562,558.46215)"
       clip-path="url(#clipPath1152)"
       id="g859">
	<path
   id="path847"
   d="m 87.8,59.8 c 0,-11.4 -6,-13.6 -11.1,-14 -8.5,-0.6 -14.8,4.6 -14.8,4.6 l 4.7,4.8 c 5,-4 13.3,-3.2 14,2 0,0 -7.3,1.7 -9,2 -5.1,1.1 -8.5,1.5 -11.1,5.3 -2.3,3.7 -1.7,9.2 1.7,12.3 4.7,4.2 14.5,4.2 19.4,-1.5 0,0 0.6,3.2 1,4.2 H 90 C 86.9,72.3 87.7,64.6 87.8,59.8 Z m -7.2,5.1 c -0.4,3.3 -2.7,7.4 -8.8,8.2 -3.8,0.5 -7.4,-2 -5.5,-5.4 0.6,-1.1 1.9,-1.9 3.7,-2.2 1.1,-0.2 2.3,-0.3 3.6,-0.5 2.8,-0.4 5.4,-1 7,-1.6 0,0 0,1.1 0,1.5 z"
   class="st0"
   inkscape:connector-curvature="0"
   style="fill:#333333" />
	<path
   id="path849"
   d="M 40,62.9 C 40.1,53.1 34.7,46.1 24.9,46.2 15.3,46.1 9.5,53.5 9.6,63 c 0,5.1 1.4,9.1 4.3,12.2 3.6,4.1 10.4,5.4 16,4 4,-1 7.1,-3.7 9.3,-7.1 L 33,68.7 c -4.6,7.7 -15.3,5.1 -15.7,-4 H 40 Z M 17.8,58.7 c 1.7,-7.6 13.1,-8 14.7,0 z"
   class="st0"
   inkscape:connector-curvature="0"
   style="fill:#333333" />
	<path
   id="path851"
   d="M 83.1,24.8 C 70.3,17.6 49.7,18.5 11.5,39.8 9.4,41 9.4,40.3 9.9,39.7 12.6,36.5 46.6,8.6 76.8,11.2 c 8.8,0.8 24.5,5.9 27.1,22.9 2.6,17 -5.1,27 -7.4,27.5 C 99.6,49.8 97.6,33 83.1,24.8 Z"
   class="st1"
   inkscape:connector-curvature="0"
   style="fill:#0096d7" />
	<g
   id="g857">
		<path
   id="path853"
   d="m 46,49.4 v 30 h 7.3 v -30 z"
   class="st0"
   inkscape:connector-curvature="0"
   style="fill:#333333" />
		<circle
   id="circle855"
   r="4.6999998"
   cy="40.099998"
   cx="49.700001"
   class="st0"
   style="fill:#333333" />
	</g>
</g></g><style
     id="style845"
     type="text/css">
	.st0{fill:#333333;}
	.st1{fill:#0096D7;}
</style></svg>