<svg id="Capa_1" enable-background="new 0 0 512.008 512.008" height="512" viewBox="0 0 512.008 512.008" width="512" xmlns="http://www.w3.org/2000/svg"><g><path d="m496.007 481.754c-8.431 0-12.037-3.25-19.392-10.601-26.203-26.191-54.992-26.206-81.211 0-14.512 14.505-24.271 14.509-38.786 0-26.203-26.189-54.993-26.208-81.211 0-14.511 14.505-24.27 14.508-38.785-.001-26.205-26.191-54.993-26.205-81.213 0-14.514 14.507-24.274 14.508-38.79 0-26.208-26.191-54.995-26.205-81.217 0-7.355 7.351-10.963 10.601-19.396 10.601-8.284 0-15 6.712-15 14.992s6.716 14.992 15 14.992c21.214 0 32.423-11.203 40.608-19.383 14.516-14.507 24.275-14.508 38.791 0 26.207 26.19 54.994 26.206 81.215 0 14.512-14.505 24.272-14.509 38.787 0 26.203 26.19 54.992 26.207 81.212 0 14.512-14.506 24.27-14.507 38.784 0 26.203 26.189 54.993 26.207 81.213 0 14.513-14.505 24.27-14.508 38.785 0 8.184 8.18 19.393 19.383 40.605 19.383 8.284 0 15-6.712 15-14.992.001-8.279-6.715-14.991-14.999-14.991z"/><path d="m497.007 256.871h-61v-74.961c0-8.28-6.716-14.992-15-14.992h-195c-8.284 0-15 6.712-15 14.992v59.969 44.977h-30v-119.939c0-8.28-6.716-14.992-15-14.992h-15v-59.969c0-8.28-6.716-14.992-15-14.992h-15.05v-26.986c0-11.022 8.972-19.99 20-19.99h68.279c4.626 0 8.785 2.569 10.854 6.705 7.184 14.359 21.624 23.279 37.687 23.279h73.229c8.284 0 15-6.712 15-14.992s-6.716-14.992-15-14.992h-73.229c-4.626 0-8.785-2.569-10.854-6.705-7.184-14.359-21.625-23.279-37.687-23.279h-68.279c-27.57 0-50 22.418-50 49.974v26.986h-14.95c-8.284 0-15 6.712-15 14.992v59.969h-15c-8.284 0-15 6.712-15 14.992v104.946h-16c-9.796 0-16.975 9.255-14.523 18.742l28.784 111.363c-3.99 3.305-7.5 4.825-13.26 4.825-8.284 0-15 6.712-15 14.992s6.716 14.992 15 14.992c21.214 0 32.423-11.203 40.608-19.383 14.516-14.507 24.275-14.508 38.791 0 26.207 26.19 54.994 26.206 81.215 0 14.512-14.505 24.272-14.509 38.787 0 26.203 26.19 54.992 26.207 81.212 0 14.512-14.506 24.27-14.507 38.784 0 26.203 26.189 54.993 26.207 81.213 0 7.355-7.351 10.962-10.601 19.393-10.601s12.037 3.25 19.392 10.601c8.184 8.18 19.393 19.384 40.605 19.384 8.284 0 15-6.712 15-14.992s-6.716-14.992-15-14.992c-12.187 0-15.607-8.139-26.997-17.757 38.736-58.376 42.802-113.702 42.965-116.192.566-8.653-6.309-15.974-14.969-15.974zm-91 0c-4.252 0-8.305 1.804-11.149 4.963l-22.531 25.022h-34.319v-29.984h67.999zm0-29.985h-67.5v-29.984h67.5zm-97.5-29.984v29.984h-67.5v-29.984zm-67.5 59.969h67v29.984h-67zm-150-149.923h30v44.977h-30zm-30 74.961h90v104.946h-31.138c-5.078-5.368-8.096-14.992-18.862-14.992h-40zm379.901 195.115c-20.184-1.747-32.268 5.939-45.504 19.168-14.512 14.505-24.271 14.509-38.786 0-26.203-26.189-54.993-26.208-81.211 0-14.511 14.505-24.27 14.508-38.785-.001-26.205-26.191-54.993-26.205-81.213 0-14.514 14.507-24.274 14.508-38.79 0-21.936-21.922-44.598-22.902-61.714-14.91l-20.531-79.434h59.207c5.078 5.368 8.096 14.992 18.862 14.992h266.564c4.252 0 8.305-1.804 11.149-4.963l22.531-25.022h66.935c-3.918 19.586-13.911 54.579-38.714 90.17z"/><ellipse cx="390.507" cy="45.48" rx="14.5" ry="14.492"/></g></svg>